0
SECTION
2
HEADER
9
$INSUNITS
70
4
9
$ACADVER
1
AC1014
9
$HANDSEED
5
FFFF
0
ENDSEC
0
SECTION
2
TABLES
0
TABLE
2
VPORT
5
8
100
AcDbSymbolTable
0
ENDTAB
0
TABLE
2
LTYPE
5
5
100
AcDbSymbolTable
0
LTYPE
5
14
100
AcDbSymbolTableRecord
100
AcDbLinetypeTableRecord
2
BYBLOCK
70
0
0
LTYPE
5
15
100
AcDbSymbolTableRecord
100
AcDbLinetypeTableRecord
2
BYLAYER
70
0
0
ENDTAB
0
TABLE
2
LAYER
5
2
100
AcDbSymbolTable
70
2
0
LAYER
5
50
100
AcDbSymbolTableRecord
100
AcDbLayerTableRecord
2
0
70
0
6
CONTINUOUS
0
ENDTAB
0
TABLE
2
STYLE
5
3
100
AcDbSymbolTable
70
1
0
STYLE
5
11
100
AcDbSymbolTableRecord
100
AcDbTextStyleTableRecord
2
STANDARD
70
0
0
ENDTAB
0
TABLE
2
VIEW
5
6
100
AcDbSymbolTable
70
0
0
ENDTAB
0
TABLE
2
UCS
5
7
100
AcDbSymbolTable
70
0
0
ENDTAB
0
TABLE
2
APPID
5
9
100
AcDbSymbolTable
70
2
0
APPID
5
12
100
AcDbSymbolTableRecord
100
AcDbRegAppTableRecord
2
ACAD
70
0
0
ENDTAB
0
TABLE
2
DIMSTYLE
5
A
100
AcDbSymbolTable
70
1
0
ENDTAB
0
TABLE
2
BLOCK_RECORD
5
1
100
AcDbSymbolTable
70
1
0
BLOCK_RECORD
5
1F
100
AcDbSymbolTableRecord
100
AcDbBlockTableRecord
2
*MODEL_SPACE
0
BLOCK_RECORD
5
1B
100
AcDbSymbolTableRecord
100
AcDbBlockTableRecord
2
*PAPER_SPACE
0
ENDTAB
0
ENDSEC
0
SECTION
2
BLOCKS
0
BLOCK
5
20
100
AcDbEntity
100
AcDbBlockBegin
2
*MODEL_SPACE
0
ENDBLK
5
21
100
AcDbEntity
100
AcDbBlockEnd
0
BLOCK
5
1C
100
AcDbEntity
100
AcDbBlockBegin
2
*PAPER_SPACE
0
ENDBLK
5
1D
100
AcDbEntity
100
AcDbBlockEnd
0
ENDSEC
0
SECTION
2
ENTITIES
0
CIRCLE
5
100
100
AcDbEntity
8
0
100
AcDbCircle
10
0
20
0
30
0
40
88
210
0
220
0
230
1
0
LWPOLYLINE
5
101
100
AcDbEntity
8
0
100
AcDbPolyline
90
4
70
1
43
0.0
10
-30.000000000000107
20
82.7284715197857
10
29.999999999999893
20
82.728471519785785
10
22.499999999999901
20
67.928471519785745
10
-22.500000000000099
20
67.928471519785745
0
LINE
5
102
100
AcDbEntity
8
0
100
AcDbLine
10
3.9968028886505635e-14
20
88
30
0
11
0
21
0
31
0
0
LINE
5
103
100
AcDbEntity
8
0
100
AcDbLine
10
-1.0658141036403118e-13
20
82.728471519785742
30
0
11
-9.8077113958968882e-14
21
67.928471519785745
31
0
0
LINE
5
104
100
AcDbEntity
8
0
100
AcDbLine
10
-88
20
0
30
0
11
88
21
4.4408920985006262e-15
31
0
0
LINE
5
105
100
AcDbEntity
8
0
100
AcDbLine
10
-49.069815329152661
20
-27.698659237639191
30
0
11
-19.34402231005695
21
-0.93343498328481544
31
0
0
LINE
5
106
100
AcDbEntity
8
0
100
AcDbLine
10
-19.34402231005695
20
-0.93343498328481544
30
0
11
-2.950322454264882
21
-19.140483207480941
31
0
0
LINE
5
107
100
AcDbEntity
8
0
100
AcDbLine
10
-2.950322454264882
20
-19.140483207480941
30
0
11
-32.676115473360646
21
-45.905707461835455
31
0
0
LINE
5
108
100
AcDbEntity
8
0
100
AcDbLine
10
-32.676115473360646
20
-45.905707461835455
30
0
11
-49.069815329152661
21
-27.698659237639191
31
0
0
LINE
5
109
100
AcDbEntity
8
0
100
AcDbLine
10
-13.489129504416903
20
-7.435952206212006
30
0
11
-8.80521525990493
21
-12.637965984553738
31
0
0
LINE
5
110
100
AcDbEntity
8
0
100
AcDbLine
10
-8.80521525990493
20
-12.637965984553738
30
0
11
-55.623339264980842
21
-54.793194185161767
31
0
0
LINE
5
111
100
AcDbEntity
8
0
100
AcDbLine
10
-55.623339264980842
20
-54.793194185161767
30
0
11
-60.307253509492817
21
-49.591180406819966
31
0
0
LINE
5
112
100
AcDbEntity
8
0
100
AcDbLine
10
-60.307253509492817
20
-49.591180406819966
30
0
11
-13.489129504416903
21
-7.435952206212006
31
0
0
CIRCLE
5
113
100
AcDbEntity
8
0
100
AcDbCircle
10
-24.073688657458689
20
-40.514904842832138
30
0
40
1.6500000000000001
210
0
220
0
230
1
0
CIRCLE
5
114
100
AcDbEntity
8
0
100
AcDbCircle
10
-42.809345635506759
20
-19.706849729465134
30
0
40
1.6500000000000001
210
0
220
0
230
1
0
LINE
5
115
100
AcDbEntity
8
0
100
AcDbLine
10
-42.809345635506759
20
-19.706849729465134
30
0
11
-24.073688657458689
21
-40.514904842832138
31
0
0
LINE
5
116
100
AcDbEntity
8
0
100
AcDbLine
10
-33.441517146482724
20
-30.110877286148643
30
0
11
-11.147172382160917
21
-10.036959095382873
31
0
0
LINE
5
117
100
AcDbEntity
8
0
100
AcDbLine
10
-65.396744642010717
20
-58.883493359579511
30
0
11
65.396744642010731
21
58.883493359579511
31
0
0
LINE
5
118
100
AcDbEntity
8
0
100
AcDbLine
10
0
20
0
30
0
11
-11.147172382160917
21
-10.036959095382873
31
0
0
LINE
5
119
100
AcDbEntity
8
0
100
AcDbLine
10
-3.3456530317942903
20
3.7157241273869719
30
0
11
3.3456530317942907
21
-3.715724127386971
31
0
0
LWPOLYLINE
5
120
100
AcDbEntity
8
0
100
AcDbPolyline
90
4
70
1
43
0.0
10
-33.805582973491376
20
-64.079501869337264
10
-67.262113291434204
20
-26.922260595467606
10
-82.125009800982141
20
-40.304872722644625
10
-48.668479483039278
20
-77.46211399651439
0
LINE
5
121
100
AcDbEntity
8
0
100
AcDbLine
10
-33.805582973491376
20
-64.079501869337264
30
0
11
-82.125009800982141
21
-40.304872722644625
31
0
0
LINE
5
122
100
AcDbEntity
8
0
100
AcDbLine
10
-67.262113291434204
20
-26.922260595467606
30
0
11
-48.668479483039278
21
-77.46211399651439
31
0
0
LINE
5
123
100
AcDbEntity
8
0
100
AcDbLine
10
33.805582973491475
20
64.07950186933715
30
0
11
48.668479483039199
21
77.462113996514361
31
0
0
LINE
5
124
100
AcDbEntity
8
0
100
AcDbLine
10
67.262113291434318
20
26.922260595467495
30
0
11
33.805582973491475
21
64.07950186933715
31
0
0
LINE
5
125
100
AcDbEntity
8
0
100
AcDbLine
10
82.125009800982184
20
40.304872722644667
30
0
11
67.262113291434318
21
26.922260595467495
31
0
0
LINE
5
126
100
AcDbEntity
8
0
100
AcDbLine
10
55.623339264980672
20
54.793194185161894
30
0
11
8.80521525990493
21
12.637965984553734
31
0
0
LINE
5
127
100
AcDbEntity
8
0
100
AcDbLine
10
60.30725350949271
20
49.591180406820136
30
0
11
55.623339264980672
21
54.793194185161894
31
0
0
LINE
5
128
100
AcDbEntity
8
0
100
AcDbLine
10
13.489129504416903
20
7.4359522062120167
30
0
11
60.30725350949271
21
49.591180406820136
31
0
0
LINE
5
129
100
AcDbEntity
8
0
100
AcDbLine
10
49.06981532915286
20
27.698659237639074
30
0
11
32.676115473360738
21
45.905707461835235
31
0
0
LINE
5
130
100
AcDbEntity
8
0
100
AcDbLine
10
32.676115473360738
20
45.905707461835227
30
0
11
2.9503224542649287
21
19.14048320748098
31
0
0
LINE
5
131
100
AcDbEntity
8
0
100
AcDbLine
10
19.344022310056914
20
0.93343498328476715
30
0
11
49.06981532915286
21
27.698659237639074
31
0
0
LINE
5
132
100
AcDbEntity
8
0
100
AcDbLine
10
2.9503224542649287
20
19.14048320748098
30
0
11
19.344022310056914
21
0.93343498328476715
31
0
0
CIRCLE
5
133
100
AcDbEntity
8
0
100
AcDbCircle
10
24.073688657458771
20
40.514904842832138
30
0
40
1.6500000000000001
210
0
220
0
230
1
0
CIRCLE
5
134
100
AcDbEntity
8
0
100
AcDbCircle
10
42.809345635506766
20
19.706849729465048
30
0
40
1.6500000000000001
210
0
220
0
230
1
0
LINE
5
135
100
AcDbEntity
8
0
100
AcDbLine
10
-33.805582973491376
20
64.079501869337264
30
0
11
-67.262113291434204
21
26.922260595467613
31
0
0
LINE
5
136
100
AcDbEntity
8
0
100
AcDbLine
10
-67.262113291434204
20
26.922260595467613
30
0
11
-82.125009800982141
21
40.304872722644625
31
0
0
LINE
5
137
100
AcDbEntity
8
0
100
AcDbLine
10
-48.668479483039278
20
77.46211399651439
30
0
11
-33.805582973491376
21
64.079501869337264
31
0
0
LINE
5
138
100
AcDbEntity
8
0
100
AcDbLine
10
-60.307253509492817
20
49.591180406819966
30
0
11
-13.489129504416903
21
7.4359522062120114
31
0
0
LINE
5
139
100
AcDbEntity
8
0
100
AcDbLine
10
-55.623339264980842
20
54.793194185161767
30
0
11
-60.307253509492817
21
49.591180406819966
31
0
0
LINE
5
140
100
AcDbEntity
8
0
100
AcDbLine
10
-8.80521525990493
20
12.637965984553743
30
0
11
-55.623339264980842
21
54.793194185161767
31
0
0
LINE
5
141
100
AcDbEntity
8
0
100
AcDbLine
10
-32.676115473360646
20
45.905707461835455
30
0
11
-49.069815329152661
21
27.698659237639195
31
0
0
LINE
5
142
100
AcDbEntity
8
0
100
AcDbLine
10
-49.069815329152661
20
27.698659237639195
30
0
11
-19.34402231005695
21
0.93343498328481878
31
0
0
LINE
5
143
100
AcDbEntity
8
0
100
AcDbLine
10
-2.9503224542648834
20
19.140483207480944
30
0
11
-32.676115473360646
21
45.905707461835455
31
0
0
CIRCLE
5
144
100
AcDbEntity
8
0
100
AcDbCircle
10
-24.073688657458689
20
40.514904842832138
30
0
40
1.6500000000000001
210
0
220
0
230
1
0
CIRCLE
5
145
100
AcDbEntity
8
0
100
AcDbCircle
10
-42.809345635506759
20
19.706849729465137
30
0
40
1.6500000000000001
210
0
220
0
230
1
0
LINE
5
146
100
AcDbEntity
8
0
100
AcDbLine
10
-19.34402231005695
20
0.93343498328481878
30
0
11
-2.9503224542648834
21
19.140483207480944
31
0
0
LINE
5
147
100
AcDbEntity
8
0
100
AcDbLine
10
32.676115473360738
20
-45.905707461835227
30
0
11
2.9503224542649296
21
-19.140483207480973
31
0
0
CIRCLE
5
148
100
AcDbEntity
8
0
100
AcDbCircle
10
24.073688657458771
20
-40.514904842832131
30
0
40
1.6500000000000001
210
0
220
0
230
1
0
CIRCLE
5
149
100
AcDbEntity
8
0
100
AcDbCircle
10
42.809345635506766
20
-19.706849729465045
30
0
40
1.6500000000000001
210
0
220
0
230
1
0
LINE
5
150
100
AcDbEntity
8
0
100
AcDbLine
10
19.344022310056914
20
-0.9334349832847616
30
0
11
49.06981532915286
21
-27.698659237639063
31
0
0
LINE
5
151
100
AcDbEntity
8
0
100
AcDbLine
10
49.06981532915286
20
-27.698659237639063
30
0
11
32.676115473360738
21
-45.905707461835235
31
0
0
LINE
5
152
100
AcDbEntity
8
0
100
AcDbLine
10
2.9503224542649296
20
-19.140483207480973
30
0
11
19.344022310056914
21
-0.9334349832847616
31
0
0
LINE
5
153
100
AcDbEntity
8
0
100
AcDbLine
10
55.623339264980672
20
-54.793194185161894
30
0
11
8.80521525990493
21
-12.63796598455373
31
0
0
LINE
5
154
100
AcDbEntity
8
0
100
AcDbLine
10
13.489129504416903
20
-7.4359522062120122
30
0
11
60.30725350949271
21
-49.591180406820136
31
0
0
LINE
5
155
100
AcDbEntity
8
0
100
AcDbLine
10
60.30725350949271
20
-49.591180406820136
30
0
11
55.623339264980672
21
-54.793194185161894
31
0
0
LINE
5
156
100
AcDbEntity
8
0
100
AcDbLine
10
67.262113291434318
20
-26.922260595467485
30
0
11
33.805582973491475
21
-64.07950186933715
31
0
0
LINE
5
157
100
AcDbEntity
8
0
100
AcDbLine
10
33.805582973491475
20
-64.07950186933715
30
0
11
48.668479483039199
21
-77.462113996514361
31
0
0
LINE
5
158
100
AcDbEntity
8
0
100
AcDbLine
10
82.125009800982184
20
-40.304872722644667
30
0
11
67.262113291434318
21
-26.922260595467485
31
0
0
CIRCLE
5
159
100
AcDbEntity
8
0
100
AcDbCircle
10
-78.934180146016331
20
28.729692039356173
30
0
40
1.6500000000000001
210
0
220
0
230
1
0
LINE
5
160
100
AcDbEntity
8
0
100
AcDbLine
10
-78.934180146016331
20
28.729692039356173
30
0
11
0
21
0
31
0
0
CIRCLE
5
161
100
AcDbEntity
8
0
100
AcDbCircle
10
78.934180146016359
20
28.729692039356102
30
0
40
1.6500000000000001
210
0
220
0
230
1
0
CIRCLE
5
162
100
AcDbEntity
8
0
100
AcDbCircle
10
78.934180146016359
20
-28.729692039356092
30
0
40
1.6500000000000001
210
0
220
0
230
1
0
CIRCLE
5
163
100
AcDbEntity
8
0
100
AcDbCircle
10
-78.934180146016331
20
-28.729692039356173
30
0
40
1.6500000000000001
210
0
220
0
230
1
0
ENDSEC
0
SECTION
2
OBJECTS
0
DICTIONARY
5
C
100
AcDbDictionary
3
ACAD_GROUP
350
D
3
ACAD_MLINESTYLE
350
17
0
DICTIONARY
5
D
100
AcDbDictionary
0
DICTIONARY
5
1A
330
C
100
AcDbDictionary
0
DICTIONARY
5
17
100
AcDbDictionary
0
ENDSEC
0
EOF
