0
SECTION
2
HEADER
9
$INSUNITS
70
4
9
$ACADVER
1
AC1014
9
$HANDSEED
5
FFFF
0
ENDSEC
0
SECTION
2
TABLES
0
TABLE
2
VPORT
5
8
100
AcDbSymbolTable
0
ENDTAB
0
TABLE
2
LTYPE
5
5
100
AcDbSymbolTable
0
LTYPE
5
14
100
AcDbSymbolTableRecord
100
AcDbLinetypeTableRecord
2
BYBLOCK
70
0
0
LTYPE
5
15
100
AcDbSymbolTableRecord
100
AcDbLinetypeTableRecord
2
BYLAYER
70
0
0
ENDTAB
0
TABLE
2
LAYER
5
2
100
AcDbSymbolTable
70
2
0
LAYER
5
50
100
AcDbSymbolTableRecord
100
AcDbLayerTableRecord
2
0
70
0
6
CONTINUOUS
0
ENDTAB
0
TABLE
2
STYLE
5
3
100
AcDbSymbolTable
70
1
0
STYLE
5
11
100
AcDbSymbolTableRecord
100
AcDbTextStyleTableRecord
2
STANDARD
70
0
0
ENDTAB
0
TABLE
2
VIEW
5
6
100
AcDbSymbolTable
70
0
0
ENDTAB
0
TABLE
2
UCS
5
7
100
AcDbSymbolTable
70
0
0
ENDTAB
0
TABLE
2
APPID
5
9
100
AcDbSymbolTable
70
2
0
APPID
5
12
100
AcDbSymbolTableRecord
100
AcDbRegAppTableRecord
2
ACAD
70
0
0
ENDTAB
0
TABLE
2
DIMSTYLE
5
A
100
AcDbSymbolTable
70
1
0
ENDTAB
0
TABLE
2
BLOCK_RECORD
5
1
100
AcDbSymbolTable
70
1
0
BLOCK_RECORD
5
1F
100
AcDbSymbolTableRecord
100
AcDbBlockTableRecord
2
*MODEL_SPACE
0
BLOCK_RECORD
5
1B
100
AcDbSymbolTableRecord
100
AcDbBlockTableRecord
2
*PAPER_SPACE
0
ENDTAB
0
ENDSEC
0
SECTION
2
BLOCKS
0
BLOCK
5
20
100
AcDbEntity
100
AcDbBlockBegin
2
*MODEL_SPACE
0
ENDBLK
5
21
100
AcDbEntity
100
AcDbBlockEnd
0
BLOCK
5
1C
100
AcDbEntity
100
AcDbBlockBegin
2
*PAPER_SPACE
0
ENDBLK
5
1D
100
AcDbEntity
100
AcDbBlockEnd
0
ENDSEC
0
SECTION
2
ENTITIES
0
CIRCLE
5
100
100
AcDbEntity
8
0
100
AcDbCircle
10
78.934180146016331
20
28.729692039356173
30
0
40
1.6500000000000004
210
0
220
-0
230
1
0
CIRCLE
5
101
100
AcDbEntity
8
0
100
AcDbCircle
10
-24.073688657458771
20
40.514904842832131
30
0
40
1.6500000000000004
210
0
220
-0
230
1
0
CIRCLE
5
102
100
AcDbEntity
8
0
100
AcDbCircle
10
-24.073688657458771
20
-40.514904842832138
30
0
40
1.6500000000000004
210
0
220
-0
230
1
0
CIRCLE
5
103
100
AcDbEntity
8
0
100
AcDbCircle
10
42.809345635506759
20
19.706849729465134
30
0
40
1.6500000000000004
210
0
220
-0
230
1
0
CIRCLE
5
104
100
AcDbEntity
8
0
100
AcDbCircle
10
42.809345635506759
20
-19.706849729465137
30
0
40
1.6500000000000004
210
0
220
-0
230
1
0
CIRCLE
5
105
100
AcDbEntity
8
0
100
AcDbCircle
10
-42.809345635506766
20
-19.706849729465048
30
0
40
1.6500000000000004
210
0
220
-0
230
1
0
CIRCLE
5
106
100
AcDbEntity
8
0
100
AcDbCircle
10
-78.934180146016359
20
28.729692039356092
30
0
40
1.6499999999999915
210
0
220
-0
230
1
0
CIRCLE
5
107
100
AcDbEntity
8
0
100
AcDbCircle
10
-78.934180146016359
20
-28.729692039356102
30
0
40
1.6499999999999915
210
0
220
-0
230
1
0
CIRCLE
5
108
100
AcDbEntity
8
0
100
AcDbCircle
10
78.934180146016331
20
-28.729692039356173
30
0
40
1.6500000000000004
210
0
220
-0
230
1
0
CIRCLE
5
109
100
AcDbEntity
8
0
100
AcDbCircle
10
24.073688657458689
20
40.514904842832138
30
0
40
1.6500000000000004
210
0
220
-0
230
1
0
CIRCLE
5
110
100
AcDbEntity
8
0
100
AcDbCircle
10
-42.809345635506766
20
19.706849729465045
30
0
40
1.6500000000000004
210
0
220
-0
230
1
0
CIRCLE
5
111
100
AcDbEntity
8
0
100
AcDbCircle
10
24.073688657458689
20
-40.514904842832138
30
0
40
1.6500000000000004
210
0
220
-0
230
1
0
LWPOLYLINE
5
112
100
AcDbEntity
8
0
100
AcDbPolyline
90
20
70
1
43
0.0
10
-79.430490518213816
20
37.878716663001512
42
0.22623547566374044
10
-79.430490518213844
20
-37.87871666300147
10
-67.262113291434318
20
-26.922260595467495
10
-33.805582973491482
20
-64.07950186933715
10
-45.973960200270895
20
-75.035957936871228
42
0.050496894872658425
10
-29.999999999999929
20
-82.728471519785757
10
-22.499999999999911
20
-67.928471519785745
10
22.500000000000099
20
-67.928471519785745
10
30.000000000000107
20
-82.7284715197857
42
0.050496894872657731
10
45.973960200270852
20
-75.035957936871256
10
33.805582973491383
20
-64.079501869337264
10
67.262113291434204
20
-26.922260595467613
10
79.430490518213801
20
-37.878716663001519
42
0.22623547566374058
10
79.430490518213816
20
37.878716663001491
10
67.262113291434204
20
26.922260595467606
10
33.805582973491383
20
64.079501869337264
10
45.973960200270895
20
75.035957936871228
42
0.2819866290973207
10
-45.973960200270895
20
75.035957936871242
10
-33.805582973491482
20
64.07950186933715
10
-67.262113291434318
20
26.922260595467485
0
LINE
5
113
100
AcDbEntity
8
0
100
AcDbLine
10
32.676115473360646
20
-45.905707461835455
30
0
11
49.069815329152661
21
-27.698659237639195
31
0
0
LINE
5
114
100
AcDbEntity
8
0
100
AcDbLine
10
2.9503224542648834
20
-19.140483207480944
30
0
11
32.676115473360646
21
-45.905707461835455
31
0
0
LINE
5
115
100
AcDbEntity
8
0
100
AcDbLine
10
19.34402231005695
20
-0.93343498328481878
30
0
11
2.9503224542648834
21
-19.140483207480944
31
0
0
LINE
5
116
100
AcDbEntity
8
0
100
AcDbLine
10
49.069815329152661
20
-27.698659237639195
30
0
11
19.34402231005695
21
-0.93343498328481878
31
0
0
LINE
5
117
100
AcDbEntity
8
0
100
AcDbLine
10
49.069815329152661
20
27.698659237639191
30
0
11
19.34402231005695
21
0.93343498328481544
31
0
0
LINE
5
118
100
AcDbEntity
8
0
100
AcDbLine
10
19.34402231005695
20
0.93343498328481544
30
0
11
2.950322454264882
21
19.140483207480941
31
0
0
LINE
5
119
100
AcDbEntity
8
0
100
AcDbLine
10
2.950322454264882
20
19.140483207480941
30
0
11
32.676115473360639
21
45.905707461835455
31
0
0
LINE
5
120
100
AcDbEntity
8
0
100
AcDbLine
10
32.676115473360639
20
45.905707461835455
30
0
11
49.069815329152661
21
27.698659237639191
31
0
0
LINE
5
121
100
AcDbEntity
8
0
100
AcDbLine
10
-19.344022310056914
20
0.9334349832847616
30
0
11
-49.06981532915286
21
27.698659237639063
31
0
0
LINE
5
122
100
AcDbEntity
8
0
100
AcDbLine
10
-2.9503224542649296
20
19.140483207480973
30
0
11
-19.344022310056914
21
0.9334349832847616
31
0
0
LINE
5
123
100
AcDbEntity
8
0
100
AcDbLine
10
-32.676115473360738
20
45.905707461835227
30
0
11
-2.9503224542649296
21
19.140483207480973
31
0
0
LINE
5
124
100
AcDbEntity
8
0
100
AcDbLine
10
-49.06981532915286
20
27.698659237639063
30
0
11
-32.676115473360738
21
45.905707461835235
31
0
0
LINE
5
125
100
AcDbEntity
8
0
100
AcDbLine
10
-32.676115473360738
20
-45.905707461835227
30
0
11
-2.9503224542649287
21
-19.140483207480976
31
0
0
LINE
5
126
100
AcDbEntity
8
0
100
AcDbLine
10
-2.9503224542649287
20
-19.140483207480976
30
0
11
-19.344022310056914
21
-0.9334349832847666
31
0
0
LINE
5
127
100
AcDbEntity
8
0
100
AcDbLine
10
-19.344022310056914
20
-0.9334349832847666
30
0
11
-49.06981532915286
21
-27.698659237639074
31
0
0
LINE
5
128
100
AcDbEntity
8
0
100
AcDbLine
10
-49.06981532915286
20
-27.698659237639074
30
0
11
-32.676115473360738
21
-45.905707461835235
31
0
0
ENDSEC
0
SECTION
2
OBJECTS
0
DICTIONARY
5
C
100
AcDbDictionary
3
ACAD_GROUP
350
D
3
ACAD_MLINESTYLE
350
17
0
DICTIONARY
5
D
100
AcDbDictionary
0
DICTIONARY
5
1A
330
C
100
AcDbDictionary
0
DICTIONARY
5
17
100
AcDbDictionary
0
ENDSEC
0
EOF
