0
SECTION
2
HEADER
9
$INSUNITS
70
4
9
$ACADVER
1
AC1014
9
$HANDSEED
5
FFFF
0
ENDSEC
0
SECTION
2
TABLES
0
TABLE
2
VPORT
5
8
100
AcDbSymbolTable
0
ENDTAB
0
TABLE
2
LTYPE
5
5
100
AcDbSymbolTable
0
LTYPE
5
14
100
AcDbSymbolTableRecord
100
AcDbLinetypeTableRecord
2
BYBLOCK
70
0
0
LTYPE
5
15
100
AcDbSymbolTableRecord
100
AcDbLinetypeTableRecord
2
BYLAYER
70
0
0
ENDTAB
0
TABLE
2
LAYER
5
2
100
AcDbSymbolTable
70
2
0
LAYER
5
50
100
AcDbSymbolTableRecord
100
AcDbLayerTableRecord
2
0
70
0
6
CONTINUOUS
0
ENDTAB
0
TABLE
2
STYLE
5
3
100
AcDbSymbolTable
70
1
0
STYLE
5
11
100
AcDbSymbolTableRecord
100
AcDbTextStyleTableRecord
2
STANDARD
70
0
0
ENDTAB
0
TABLE
2
VIEW
5
6
100
AcDbSymbolTable
70
0
0
ENDTAB
0
TABLE
2
UCS
5
7
100
AcDbSymbolTable
70
0
0
ENDTAB
0
TABLE
2
APPID
5
9
100
AcDbSymbolTable
70
2
0
APPID
5
12
100
AcDbSymbolTableRecord
100
AcDbRegAppTableRecord
2
ACAD
70
0
0
ENDTAB
0
TABLE
2
DIMSTYLE
5
A
100
AcDbSymbolTable
70
1
0
ENDTAB
0
TABLE
2
BLOCK_RECORD
5
1
100
AcDbSymbolTable
70
1
0
BLOCK_RECORD
5
1F
100
AcDbSymbolTableRecord
100
AcDbBlockTableRecord
2
*MODEL_SPACE
0
BLOCK_RECORD
5
1B
100
AcDbSymbolTableRecord
100
AcDbBlockTableRecord
2
*PAPER_SPACE
0
ENDTAB
0
ENDSEC
0
SECTION
2
BLOCKS
0
BLOCK
5
20
100
AcDbEntity
100
AcDbBlockBegin
2
*MODEL_SPACE
0
ENDBLK
5
21
100
AcDbEntity
100
AcDbBlockEnd
0
BLOCK
5
1C
100
AcDbEntity
100
AcDbBlockBegin
2
*PAPER_SPACE
0
ENDBLK
5
1D
100
AcDbEntity
100
AcDbBlockEnd
0
ENDSEC
0
SECTION
2
ENTITIES
0
ARC
5
100
100
AcDbEntity
8
0
100
AcDbCircle
10
-40.987803063838406
20
29.500000000000011
30
0
40
1.999999999999984
210
0
220
-0
230
1
100
AcDbArc
50
89.999999999999801
51
144.25644182383411
0
ARC
5
101
100
AcDbEntity
8
0
100
AcDbCircle
10
0
20
0
30
0
40
52.5
210
0
220
0
230
1
100
AcDbArc
50
144.256441823834
51
158.64909922909851
0
LINE
5
102
100
AcDbEntity
8
0
100
AcDbLine
10
-48.8968280138713
20
19.1141363964447
30
0
11
-81.791143492327819
21
19.114136396444685
31
0
0
ARC
5
103
100
AcDbEntity
8
0
100
AcDbCircle
10
-81.791143492327819
20
14.114136396444689
30
0
40
4.9999999999999956
210
0
220
-0
230
1
100
AcDbArc
50
90
51
270
0
LINE
5
104
100
AcDbEntity
8
0
100
AcDbLine
10
-81.791143492327819
20
9.1141363964446995
30
0
11
-51.702828914354406
21
9.114136396444696
31
0
0
ARC
5
105
100
AcDbEntity
8
0
100
AcDbCircle
10
0
20
0
30
0
40
52.5
210
0
220
0
230
1
100
AcDbArc
50
170.00265179707097
51
180
0
LINE
5
106
100
AcDbEntity
8
0
100
AcDbLine
10
-52.5
20
-9.1141363964447173
30
0
11
-81.791143492327791
21
-9.1141363964447173
31
0
0
ARC
5
107
100
AcDbEntity
8
0
100
AcDbCircle
10
-81.791143492327791
20
-14.11413639644471
30
0
40
4.9999999999999929
210
0
220
-0
230
1
100
AcDbArc
50
90
51
270
0
LINE
5
108
100
AcDbEntity
8
0
100
AcDbLine
10
-81.791143492327791
20
-19.1141363964447
30
0
11
-52.5
21
-19.114136396444703
31
0
0
LINE
5
109
100
AcDbEntity
8
0
100
AcDbLine
10
52.5
20
-19.114136396444504
30
0
11
81.791143492327834
21
-19.114136396444504
31
0
0
ARC
5
110
100
AcDbEntity
8
0
100
AcDbCircle
10
81.791143492327834
20
-14.114136396444506
30
0
40
4.9999999999999982
210
-0
220
0
230
1
100
AcDbArc
50
-90
51
90
0
LINE
5
111
100
AcDbEntity
8
0
100
AcDbLine
10
81.791143492327834
20
-9.1141363964445059
30
0
11
52.5
21
-9.1141363964445041
31
0
0
ARC
5
112
100
AcDbEntity
8
0
100
AcDbCircle
10
0
20
0
30
0
40
52.5
210
-0
220
0
230
1
100
AcDbArc
50
0
51
9.9973482029290341
0
LINE
5
113
100
AcDbEntity
8
0
100
AcDbLine
10
51.702828914354413
20
9.1141363964446889
30
0
11
81.791143492327791
21
9.114136396444696
31
0
0
ARC
5
114
100
AcDbEntity
8
0
100
AcDbCircle
10
81.791143492327819
20
14.1141363964447
30
0
40
5.0000000000000018
210
0
220
0
230
1
100
AcDbArc
50
-90.000000000000313
51
90
0
LINE
5
115
100
AcDbEntity
8
0
100
AcDbLine
10
81.791143492327819
20
19.1141363964447
30
0
11
48.896828013871286
21
19.1141363964447
31
0
0
ARC
5
116
100
AcDbEntity
8
0
100
AcDbCircle
10
0
20
0
30
0
40
52.5
210
0
220
-0
230
1
100
AcDbArc
50
21.3509007709015
51
35.743558176166012
0
ARC
5
117
100
AcDbEntity
8
0
100
AcDbCircle
10
40.987803063838378
20
29.5
30
0
40
2.0000000000000164
210
0
220
-0
230
1
100
AcDbArc
50
35.74355817616555
51
89.999999999999801
0
LINE
5
118
100
AcDbEntity
8
0
100
AcDbLine
10
40.987803063838385
20
31.500000000000007
30
0
11
-40.987803063838399
21
31.499999999999993
31
0
0
CIRCLE
5
119
100
AcDbEntity
8
0
100
AcDbCircle
10
-14.732000000000038
20
5.2000000000000091
30
0
40
1.6000000000000103
210
0
220
-0
230
1
0
CIRCLE
5
120
100
AcDbEntity
8
0
100
AcDbCircle
10
-25.999999999999993
20
-25.999999999999996
30
0
40
1.6000000000000014
210
0
220
-0
230
1
0
CIRCLE
5
121
100
AcDbEntity
8
0
100
AcDbCircle
10
-25.999999999999996
20
25.999999999999996
30
0
40
1.6000000000000014
210
0
220
-0
230
1
0
CIRCLE
5
122
100
AcDbEntity
8
0
100
AcDbCircle
10
14.732000000000021
20
5.2000000000000046
30
0
40
1.6000000000000014
210
0
220
-0
230
1
0
CIRCLE
5
123
100
AcDbEntity
8
0
100
AcDbCircle
10
81.791143492327819
20
14.1141363964447
30
0
40
1.6000000000000014
210
0
220
-0
230
1
0
CIRCLE
5
124
100
AcDbEntity
8
0
100
AcDbCircle
10
25.999999999999986
20
-26
30
0
40
1.6000000000000014
210
0
220
-0
230
1
0
CIRCLE
5
125
100
AcDbEntity
8
0
100
AcDbCircle
10
81.791143492327834
20
-14.114136396444506
30
0
40
1.6000000000000014
210
0
220
-0
230
1
0
CIRCLE
5
126
100
AcDbEntity
8
0
100
AcDbCircle
10
-81.791143492327791
20
-14.11413639644471
30
0
40
1.6000000000000014
210
0
220
-0
230
1
0
CIRCLE
5
127
100
AcDbEntity
8
0
100
AcDbCircle
10
-81.791143492327819
20
14.114136396444689
30
0
40
1.6000000000000014
210
0
220
-0
230
1
0
CIRCLE
5
128
100
AcDbEntity
8
0
100
AcDbCircle
10
26.000000000000007
20
26.000000000000007
30
0
40
1.6000000000000014
210
0
220
-0
230
1
0
LINE
5
129
100
AcDbEntity
8
0
100
AcDbLine
10
-52.5
20
-4.4408920985006262e-15
30
0
11
-52.5
21
-9.1141363964447173
31
0
0
ARC
5
130
100
AcDbEntity
8
0
100
AcDbCircle
10
-46.527559784296393
20
-68.732715503744814
30
0
40
5.9724402157036494
210
0
220
0
230
1
100
AcDbArc
50
180
51
201.63692355509406
0
ARC
5
131
100
AcDbEntity
8
0
100
AcDbCircle
10
0
20
0
30
0
40
88
210
0
220
0
230
1
100
AcDbArc
50
233.71452703813395
51
306.28547296186593
0
ARC
5
132
100
AcDbEntity
8
0
100
AcDbCircle
10
46.527559784296351
20
-68.732715503744856
30
0
40
5.9724402157036085
210
-0
220
0
230
1
100
AcDbArc
50
-21.636923555094775
51
0
0
LINE
5
133
100
AcDbEntity
8
0
100
AcDbLine
10
52.5
20
-68.732715503744856
30
0
11
52.5
21
-19.114136396444504
31
0
0
LINE
5
134
100
AcDbEntity
8
0
100
AcDbLine
10
52.5
20
-9.1141363964445041
30
0
11
52.5
21
-9.6440935432854071e-15
31
0
0
CIRCLE
5
135
100
AcDbEntity
8
0
100
AcDbCircle
10
46.527559784296351
20
-68.732715503744856
30
0
40
1.6000000000000014
210
0
220
-0
230
1
0
CIRCLE
5
136
100
AcDbEntity
8
0
100
AcDbCircle
10
-46.527559784296393
20
-68.732715503744814
30
0
40
1.6000000000000014
210
0
220
-0
230
1
0
LINE
5
137
100
AcDbEntity
8
0
100
AcDbLine
10
-52.5
20
-19.114136396444703
30
0
11
-52.500000000000043
21
-68.732715503744856
31
0
0
LWPOLYLINE
5
138
100
AcDbEntity
8
0
100
AcDbPolyline
90
24
70
1
43
0.0
10
-49.499999999999993
20
4.2188474935755949e-14
10
-49.5
20
-12.114136396444717
10
-81.791143492327791
20
-12.114136396444717
42
0.99999999999999989
10
-81.791143492327791
20
-16.114136396444703
10
-49.5
20
-16.114136396444703
10
-49.500000000000043
20
-68.732715503744856
42
0.032462854732828693
10
-49.474992996032789
20
-69.117472957585093
42
0.32102130956720853
10
49.474992996032853
20
-69.117472957585079
42
0.032462854732826972
10
49.499999999999957
20
-68.732715503744842
10
49.5
20
-16.114136396444501
10
81.791143492327834
20
-16.114136396444504
42
0.99999999999999989
10
81.791143492327834
20
-12.114136396444508
10
49.5
20
-12.114136396444504
10
49.5
20
-1.1102230246251567e-14
42
0.061889147207052943
10
47.994767416545876
20
12.114136396444692
10
81.791143492327791
20
12.114136396444696
42
0.99999999999999989
10
81.791143492327819
20
16.1141363964447
10
46.803681566697044
20
16.1141363964447
42
0.070604377358256865
10
40.472212689696114
20
28.500000000000014
10
-40.472212689696143
20
28.499999999999993
42
0.07060437735825667
10
-46.803681566697037
20
16.114136396444707
10
-81.791143492327819
20
16.114136396444685
42
0.99999999999999989
10
-81.791143492327819
20
12.114136396444694
10
-47.994767416545876
20
12.114136396444696
42
0.061889147207052832
0
ENDSEC
0
SECTION
2
OBJECTS
0
DICTIONARY
5
C
100
AcDbDictionary
3
ACAD_GROUP
350
D
3
ACAD_MLINESTYLE
350
17
0
DICTIONARY
5
D
100
AcDbDictionary
0
DICTIONARY
5
1A
330
C
100
AcDbDictionary
0
DICTIONARY
5
17
100
AcDbDictionary
0
ENDSEC
0
EOF
