0
SECTION
2
HEADER
9
$INSUNITS
70
4
9
$ACADVER
1
AC1014
9
$HANDSEED
5
FFFF
0
ENDSEC
0
SECTION
2
TABLES
0
TABLE
2
VPORT
5
8
100
AcDbSymbolTable
0
ENDTAB
0
TABLE
2
LTYPE
5
5
100
AcDbSymbolTable
0
LTYPE
5
14
100
AcDbSymbolTableRecord
100
AcDbLinetypeTableRecord
2
BYBLOCK
70
0
0
LTYPE
5
15
100
AcDbSymbolTableRecord
100
AcDbLinetypeTableRecord
2
BYLAYER
70
0
0
ENDTAB
0
TABLE
2
LAYER
5
2
100
AcDbSymbolTable
70
2
0
LAYER
5
50
100
AcDbSymbolTableRecord
100
AcDbLayerTableRecord
2
0
70
0
6
CONTINUOUS
0
ENDTAB
0
TABLE
2
STYLE
5
3
100
AcDbSymbolTable
70
1
0
STYLE
5
11
100
AcDbSymbolTableRecord
100
AcDbTextStyleTableRecord
2
STANDARD
70
0
0
ENDTAB
0
TABLE
2
VIEW
5
6
100
AcDbSymbolTable
70
0
0
ENDTAB
0
TABLE
2
UCS
5
7
100
AcDbSymbolTable
70
0
0
ENDTAB
0
TABLE
2
APPID
5
9
100
AcDbSymbolTable
70
2
0
APPID
5
12
100
AcDbSymbolTableRecord
100
AcDbRegAppTableRecord
2
ACAD
70
0
0
ENDTAB
0
TABLE
2
DIMSTYLE
5
A
100
AcDbSymbolTable
70
1
0
ENDTAB
0
TABLE
2
BLOCK_RECORD
5
1
100
AcDbSymbolTable
70
1
0
BLOCK_RECORD
5
1F
100
AcDbSymbolTableRecord
100
AcDbBlockTableRecord
2
*MODEL_SPACE
0
BLOCK_RECORD
5
1B
100
AcDbSymbolTableRecord
100
AcDbBlockTableRecord
2
*PAPER_SPACE
0
ENDTAB
0
ENDSEC
0
SECTION
2
BLOCKS
0
BLOCK
5
20
100
AcDbEntity
100
AcDbBlockBegin
2
*MODEL_SPACE
0
ENDBLK
5
21
100
AcDbEntity
100
AcDbBlockEnd
0
BLOCK
5
1C
100
AcDbEntity
100
AcDbBlockBegin
2
*PAPER_SPACE
0
ENDBLK
5
1D
100
AcDbEntity
100
AcDbBlockEnd
0
ENDSEC
0
SECTION
2
ENTITIES
0
LWPOLYLINE
5
100
100
AcDbEntity
8
0
100
AcDbPolyline
90
40
70
1
43
0.0
10
38.590528371635578
20
79.087110959991406
42
0.27796867590258129
10
36.534316457838983
20
78.905100645177257
10
21.00735211907238
20
67.571426747736766
42
-0.15895258952157096
10
18.059465992060421
20
66.609986810701088
10
-18.632063046398653
20
66.609986810701116
42
-0.16330028692285142
10
-21.647978807871979
20
67.621973255095071
10
-36.527812043212847
20
78.874774419592967
42
0.28261152468121659
10
-38.61171737914637
20
79.076768276358678
42
0.048029412925935815
10
-52.989739720276816
20
70.257294883715232
42
0.51489872576002782
10
-52.903813260847869
20
67.002463036702181
10
-42.764721265943265
20
60.163559133094616
42
-0.41421356237308754
10
-42.090109593230132
20
56.692982943018102
10
-70.049754766762518
20
15.241104315273471
42
-0.41421356237309481
10
-73.520330956827053
20
14.566492642562716
10
-82.72926520229791
20
20.777997222171042
42
0.52698588744188346
10
-85.797596381546867
20
19.564571427689966
42
0.11257101268960493
10
-85.797596381546839
20
-19.564571427689998
42
0.52698588744189234
10
-82.72926520229791
20
-20.777997222171066
10
-73.520330956827024
20
-14.566492642562753
42
-0.41421356237309415
10
-70.049754766762561
20
-15.241104315273448
10
-42.090109593230181
20
-56.692982943018094
42
-0.41421356237513168
10
-42.764721265943322
20
-60.163559133094644
10
-52.903813260847876
20
-67.00246303670221
42
0.51489872576002094
10
-52.989739720276809
20
-70.257294883715232
42
0.3348328414131731
10
52.989739720276823
20
-70.257294883715247
42
0.51489872576002138
10
52.903813260847883
20
-67.00246303670221
10
42.764721265943308
20
-60.163559133094651
42
-0.41421356237514206
10
42.090109593230196
20
-56.692982943018052
10
70.049754766762561
20
-15.241104315273448
42
-0.41421356237309181
10
73.520330956827081
20
-14.566492642562741
10
82.72926520229791
20
-20.777997222171045
42
0.5269858874418849
10
85.797596381546867
20
-19.564571427689955
42
0.11257101268960493
10
85.797596381546839
20
19.564571427689998
42
0.52698588744189656
10
82.72926520229791
20
20.777997222171095
10
73.520330956827024
20
14.566492642562691
42
-0.41421356237308959
10
70.049754766762518
20
15.241104315273441
10
42.090109593230203
20
56.692982943018073
42
-0.41421356237514501
10
42.764721265943294
20
60.163559133094651
10
52.903813260847848
20
67.002463036702238
42
0.51489872576002371
10
52.989739720276752
20
70.257294883715275
42
0.048096552007143585
0
CIRCLE
5
101
100
AcDbEntity
8
0
100
AcDbCircle
10
49.275056539633525
20
-10.275028040017526
30
0
40
1.6000000000000014
210
0
220
-0
230
1
0
CIRCLE
5
102
100
AcDbEntity
8
0
100
AcDbCircle
10
49.275056539633511
20
10.275028040017521
30
0
40
1.6000000000000014
210
0
220
-0
230
1
0
CIRCLE
5
103
100
AcDbEntity
8
0
100
AcDbCircle
10
-46.527559784296393
20
-68.732715503744814
30
0
40
1.6000000000000014
210
0
220
-0
230
1
0
CIRCLE
5
104
100
AcDbEntity
8
0
100
AcDbCircle
10
81.791143492327834
20
-14.114136396444506
30
0
40
1.6000000000000014
210
0
220
-0
230
1
0
CIRCLE
5
105
100
AcDbEntity
8
0
100
AcDbCircle
10
42.366362452453281
20
71.372903349572084
30
0
40
1.6000000000000014
210
0
220
-0
230
1
0
CIRCLE
5
106
100
AcDbEntity
8
0
100
AcDbCircle
10
29.703304918157567
20
39.291343079444097
30
0
40
1.6000000000000014
210
0
220
-0
230
1
0
CIRCLE
5
107
100
AcDbEntity
8
0
100
AcDbCircle
10
-81.791143492327819
20
14.114136396444689
30
0
40
1.6000000000000014
210
0
220
-0
230
1
0
CIRCLE
5
108
100
AcDbEntity
8
0
100
AcDbCircle
10
81.791143492327819
20
14.1141363964447
30
0
40
1.6000000000000014
210
0
220
-0
230
1
0
CIRCLE
5
109
100
AcDbEntity
8
0
100
AcDbCircle
10
46.527559784296351
20
-68.732715503744856
30
0
40
1.6000000000000014
210
0
220
-0
230
1
0
CIRCLE
5
110
100
AcDbEntity
8
0
100
AcDbCircle
10
-29.703304918157514
20
39.291343079444097
30
0
40
1.6000000000000014
210
0
220
-0
230
1
0
CIRCLE
5
111
100
AcDbEntity
8
0
100
AcDbCircle
10
6.9499999999999833
20
27.609986810701081
30
0
40
2.1000000000000001
210
0
220
-0
230
1
0
CIRCLE
5
112
100
AcDbEntity
8
0
100
AcDbCircle
10
-6.9499999999999984
20
49.409986810701085
30
0
40
2.0999999999999996
210
0
220
-0
230
1
0
CIRCLE
5
113
100
AcDbEntity
8
0
100
AcDbCircle
10
-49.275056539633482
20
10.27502804001748
30
0
40
1.6000000000000014
210
0
220
-0
230
1
0
CIRCLE
5
114
100
AcDbEntity
8
0
100
AcDbCircle
10
-81.791143492327791
20
-14.11413639644471
30
0
40
1.6000000000000014
210
0
220
-0
230
1
0
CIRCLE
5
115
100
AcDbEntity
8
0
100
AcDbCircle
10
-42.366362452453274
20
71.372903349572084
30
0
40
1.6000000000000014
210
0
220
-0
230
1
0
CIRCLE
5
116
100
AcDbEntity
8
0
100
AcDbCircle
10
-29.703304918157567
20
-39.291343079444097
30
0
40
1.6000000000000014
210
0
220
-0
230
1
0
CIRCLE
5
117
100
AcDbEntity
8
0
100
AcDbCircle
10
-49.275056539633525
20
-10.275028040017556
30
0
40
1.6000000000000014
210
0
220
-0
230
1
0
CIRCLE
5
118
100
AcDbEntity
8
0
100
AcDbCircle
10
29.703304918157588
20
-39.291343079444125
30
0
40
1.6000000000000014
210
0
220
-0
230
1
0
ENDSEC
0
SECTION
2
OBJECTS
0
DICTIONARY
5
C
100
AcDbDictionary
3
ACAD_GROUP
350
D
3
ACAD_MLINESTYLE
350
17
0
DICTIONARY
5
D
100
AcDbDictionary
0
DICTIONARY
5
1A
330
C
100
AcDbDictionary
0
DICTIONARY
5
17
100
AcDbDictionary
0
ENDSEC
0
EOF
