0
SECTION
2
HEADER
9
$INSUNITS
70
4
9
$ACADVER
1
AC1014
9
$HANDSEED
5
FFFF
0
ENDSEC
0
SECTION
2
TABLES
0
TABLE
2
VPORT
5
8
100
AcDbSymbolTable
0
ENDTAB
0
TABLE
2
LTYPE
5
5
100
AcDbSymbolTable
0
LTYPE
5
14
100
AcDbSymbolTableRecord
100
AcDbLinetypeTableRecord
2
BYBLOCK
70
0
0
LTYPE
5
15
100
AcDbSymbolTableRecord
100
AcDbLinetypeTableRecord
2
BYLAYER
70
0
0
ENDTAB
0
TABLE
2
LAYER
5
2
100
AcDbSymbolTable
70
2
0
LAYER
5
50
100
AcDbSymbolTableRecord
100
AcDbLayerTableRecord
2
0
70
0
6
CONTINUOUS
0
ENDTAB
0
TABLE
2
STYLE
5
3
100
AcDbSymbolTable
70
1
0
STYLE
5
11
100
AcDbSymbolTableRecord
100
AcDbTextStyleTableRecord
2
STANDARD
70
0
0
ENDTAB
0
TABLE
2
VIEW
5
6
100
AcDbSymbolTable
70
0
0
ENDTAB
0
TABLE
2
UCS
5
7
100
AcDbSymbolTable
70
0
0
ENDTAB
0
TABLE
2
APPID
5
9
100
AcDbSymbolTable
70
2
0
APPID
5
12
100
AcDbSymbolTableRecord
100
AcDbRegAppTableRecord
2
ACAD
70
0
0
ENDTAB
0
TABLE
2
DIMSTYLE
5
A
100
AcDbSymbolTable
70
1
0
ENDTAB
0
TABLE
2
BLOCK_RECORD
5
1
100
AcDbSymbolTable
70
1
0
BLOCK_RECORD
5
1F
100
AcDbSymbolTableRecord
100
AcDbBlockTableRecord
2
*MODEL_SPACE
0
BLOCK_RECORD
5
1B
100
AcDbSymbolTableRecord
100
AcDbBlockTableRecord
2
*PAPER_SPACE
0
ENDTAB
0
ENDSEC
0
SECTION
2
BLOCKS
0
BLOCK
5
20
100
AcDbEntity
100
AcDbBlockBegin
2
*MODEL_SPACE
0
ENDBLK
5
21
100
AcDbEntity
100
AcDbBlockEnd
0
BLOCK
5
1C
100
AcDbEntity
100
AcDbBlockBegin
2
*PAPER_SPACE
0
ENDBLK
5
1D
100
AcDbEntity
100
AcDbBlockEnd
0
ENDSEC
0
SECTION
2
ENTITIES
0
CIRCLE
5
100
100
AcDbEntity
8
0
100
AcDbCircle
10
5.2000000000000002
20
-14.732000000000001
30
0
40
1.6000000000000003
210
0
220
-0
230
1
0
CIRCLE
5
101
100
AcDbEntity
8
0
100
AcDbCircle
10
-56.160484328395981
20
22.499999999999957
30
0
40
1.6000000000000014
210
0
220
-0
230
1
0
CIRCLE
5
102
100
AcDbEntity
8
0
100
AcDbCircle
10
-56.16048432839591
20
-22.500000000000043
30
0
40
1.6000000000000014
210
0
220
-0
230
1
0
CIRCLE
5
103
100
AcDbEntity
8
0
100
AcDbCircle
10
11.160484328395945
20
22.50000000000011
30
0
40
1.6000000000000014
210
0
220
-0
230
1
0
CIRCLE
5
104
100
AcDbEntity
8
0
100
AcDbCircle
10
56.160484328395924
20
-22.499999999999964
30
0
40
1.6000000000000014
210
0
220
-0
230
1
0
CIRCLE
5
105
100
AcDbEntity
8
0
100
AcDbCircle
10
5.2000000000000002
20
14.732000000000003
30
0
40
1.6000000000000014
210
0
220
-0
230
1
0
CIRCLE
5
106
100
AcDbEntity
8
0
100
AcDbCircle
10
-50.923379902092385
20
-13.196163109262386
30
0
40
1.6000000000000014
210
0
220
-0
230
1
0
CIRCLE
5
107
100
AcDbEntity
8
0
100
AcDbCircle
10
33.029206991028694
20
39.725365431023832
30
0
40
1.6000000000000014
210
0
220
-0
230
1
0
CIRCLE
5
108
100
AcDbEntity
8
0
100
AcDbCircle
10
-33.029206991028701
20
39.725365431023832
30
0
40
1.6000000000000014
210
0
220
-0
230
1
0
CIRCLE
5
109
100
AcDbEntity
8
0
100
AcDbCircle
10
-11.16048432839591
20
-22.500000000000334
30
0
40
1.5999999999999992
210
0
220
-0
230
1
0
CIRCLE
5
110
100
AcDbEntity
8
0
100
AcDbCircle
10
56.160484328395945
20
22.500000000000036
30
0
40
1.6000000000000014
210
0
220
-0
230
1
0
CIRCLE
5
111
100
AcDbEntity
8
0
100
AcDbCircle
10
50.923379902092385
20
-13.196163109262386
30
0
40
1.6000000000000014
210
0
220
-0
230
1
0
CIRCLE
5
112
100
AcDbEntity
8
0
100
AcDbCircle
10
-50.923379902092385
20
13.196163109262351
30
0
40
1.6000000000000014
210
0
220
-0
230
1
0
CIRCLE
5
113
100
AcDbEntity
8
0
100
AcDbCircle
10
50.923379902092385
20
13.196163109262351
30
0
40
1.6000000000000014
210
0
220
-0
230
1
0
ARC
5
114
100
AcDbEntity
8
0
100
AcDbCircle
10
59.457968347396466
20
-24.999999999999993
30
0
40
2.0000000000000018
210
-0
220
0
230
1
100
AcDbArc
50
270.00000000000023
51
337.19494614242006
0
ARC
5
115
100
AcDbEntity
8
0
100
AcDbCircle
10
0
20
0
30
0
40
66.500000000000014
210
0
220
0
230
1
100
AcDbArc
50
136.3760271491636
51
202.80505385757994
0
ARC
5
116
100
AcDbEntity
8
0
100
AcDbCircle
10
-59.457968347396466
20
-25.000000000000018
30
0
40
1.9999999999999962
210
0
220
0
230
1
100
AcDbArc
50
202.80505385757965
51
269.99999999999983
0
LINE
5
117
100
AcDbEntity
8
0
100
AcDbLine
10
-59.457968347396474
20
-27.000000000000014
30
0
11
59.457968347396474
21
-26.999999999999993
31
0
0
LINE
5
118
100
AcDbEntity
8
0
100
AcDbLine
10
46.690470119715002
20
46.500000000000014
30
0
11
-46.690470119715002
21
46.5
31
0
0
LINE
5
119
100
AcDbEntity
8
0
100
AcDbLine
10
-41.065058347316572
20
38.049551126605451
30
0
11
-41.065058347316537
21
37.258122406398336
31
0
0
LINE
5
120
100
AcDbEntity
8
0
100
AcDbLine
10
-45.765058347316561
20
38.049551126605451
30
0
11
-41.065058347316572
21
38.049551126605451
31
0
0
LINE
5
121
100
AcDbEntity
8
0
100
AcDbLine
10
-45.765058347316561
20
37.258122406398357
30
0
11
-45.765058347316561
21
38.049551126605451
31
0
0
ARC
5
122
100
AcDbEntity
8
0
100
AcDbCircle
10
-43.415058347316567
20
30.399551126605449
30
0
40
7.2500000000000018
210
0
220
0
230
1
100
AcDbArc
50
108.91335498854012
51
251.08664501145981
0
LINE
5
123
100
AcDbEntity
8
0
100
AcDbLine
10
-35.665058347316574
20
29.649551126605459
30
0
11
-36.203955796388591
21
29.649551126605477
31
0
0
LINE
5
124
100
AcDbEntity
8
0
100
AcDbLine
10
-35.665058347316574
20
31.149551126605463
30
0
11
-35.665058347316574
21
29.649551126605459
31
0
0
LINE
5
125
100
AcDbEntity
8
0
100
AcDbLine
10
-36.203955796388584
20
31.149551126605481
30
0
11
-35.665058347316574
21
31.149551126605463
31
0
0
ARC
5
126
100
AcDbEntity
8
0
100
AcDbCircle
10
-43.415058347316567
20
30.399551126605449
30
0
40
7.2500000000000044
210
0
220
-0
230
1
100
AcDbArc
50
5.9377724516057544
51
71.086645011459581
0
LINE
5
127
100
AcDbEntity
8
0
100
AcDbLine
10
-41.06505834731658
20
22.749551126605446
30
0
11
-45.765058347316568
21
22.749551126605446
31
0
0
LINE
5
128
100
AcDbEntity
8
0
100
AcDbLine
10
-41.065058347316551
20
23.540979846812554
30
0
11
-41.06505834731658
21
22.749551126605446
31
0
0
ARC
5
129
100
AcDbEntity
8
0
100
AcDbCircle
10
-43.415058347316567
20
30.399551126605449
30
0
40
7.2500000000000018
210
-0
220
0
230
1
100
AcDbArc
50
288.91335498854028
51
354.06222754839484
0
LINE
5
130
100
AcDbEntity
8
0
100
AcDbLine
10
-45.765058347316568
20
22.749551126605446
30
0
11
-45.765058347316568
21
23.540979846812547
31
0
0
ARC
5
131
100
AcDbEntity
8
0
100
AcDbCircle
10
46.690470119714995
20
44.499999999999993
30
0
40
2.0000000000000213
210
0
220
-0
230
1
100
AcDbArc
50
43.623972850836559
51
89.999999999999801
0
ARC
5
132
100
AcDbEntity
8
0
100
AcDbCircle
10
-46.690470119715016
20
44.500000000000021
30
0
40
1.999999999999984
210
0
220
-0
230
1
100
AcDbArc
50
89.999999999999588
51
136.37602714916403
0
ARC
5
133
100
AcDbEntity
8
0
100
AcDbCircle
10
0
20
0
30
0
40
66.5
210
-0
220
0
230
1
100
AcDbArc
50
-22.805053857579942
51
43.623972850836424
0
ENDSEC
0
SECTION
2
OBJECTS
0
DICTIONARY
5
C
100
AcDbDictionary
3
ACAD_GROUP
350
D
3
ACAD_MLINESTYLE
350
17
0
DICTIONARY
5
D
100
AcDbDictionary
0
DICTIONARY
5
1A
330
C
100
AcDbDictionary
0
DICTIONARY
5
17
100
AcDbDictionary
0
ENDSEC
0
EOF
