0
SECTION
2
HEADER
9
$INSUNITS
70
4
9
$ACADVER
1
AC1014
9
$HANDSEED
5
FFFF
0
ENDSEC
0
SECTION
2
TABLES
0
TABLE
2
VPORT
5
8
100
AcDbSymbolTable
0
ENDTAB
0
TABLE
2
LTYPE
5
5
100
AcDbSymbolTable
0
LTYPE
5
14
100
AcDbSymbolTableRecord
100
AcDbLinetypeTableRecord
2
BYBLOCK
70
0
0
LTYPE
5
15
100
AcDbSymbolTableRecord
100
AcDbLinetypeTableRecord
2
BYLAYER
70
0
0
ENDTAB
0
TABLE
2
LAYER
5
2
100
AcDbSymbolTable
70
2
0
LAYER
5
50
100
AcDbSymbolTableRecord
100
AcDbLayerTableRecord
2
0
70
0
6
CONTINUOUS
0
ENDTAB
0
TABLE
2
STYLE
5
3
100
AcDbSymbolTable
70
1
0
STYLE
5
11
100
AcDbSymbolTableRecord
100
AcDbTextStyleTableRecord
2
STANDARD
70
0
0
ENDTAB
0
TABLE
2
VIEW
5
6
100
AcDbSymbolTable
70
0
0
ENDTAB
0
TABLE
2
UCS
5
7
100
AcDbSymbolTable
70
0
0
ENDTAB
0
TABLE
2
APPID
5
9
100
AcDbSymbolTable
70
2
0
APPID
5
12
100
AcDbSymbolTableRecord
100
AcDbRegAppTableRecord
2
ACAD
70
0
0
ENDTAB
0
TABLE
2
DIMSTYLE
5
A
100
AcDbSymbolTable
70
1
0
ENDTAB
0
TABLE
2
BLOCK_RECORD
5
1
100
AcDbSymbolTable
70
1
0
BLOCK_RECORD
5
1F
100
AcDbSymbolTableRecord
100
AcDbBlockTableRecord
2
*MODEL_SPACE
0
BLOCK_RECORD
5
1B
100
AcDbSymbolTableRecord
100
AcDbBlockTableRecord
2
*PAPER_SPACE
0
ENDTAB
0
ENDSEC
0
SECTION
2
BLOCKS
0
BLOCK
5
20
100
AcDbEntity
100
AcDbBlockBegin
2
*MODEL_SPACE
0
ENDBLK
5
21
100
AcDbEntity
100
AcDbBlockEnd
0
BLOCK
5
1C
100
AcDbEntity
100
AcDbBlockBegin
2
*PAPER_SPACE
0
ENDBLK
5
1D
100
AcDbEntity
100
AcDbBlockEnd
0
ENDSEC
0
SECTION
2
ENTITIES
0
LWPOLYLINE
5
100
100
AcDbEntity
8
0
100
AcDbPolyline
90
22
70
1
43
0.0
10
-59.699999999994937
20
-10.553565375283156
42
0.11580714676902384
10
-59.053565375280215
20
-11.199999999997878
10
-55.12349999998829
20
-11.199999999997878
10
-55.123499999988333
20
-13.196000000005661
42
0.99999999999999989
10
-46.723499999987233
20
-13.19599999999963
10
-46.72349999998837
20
-11.199999999997878
10
46.723499999998516
20
-11.199999999997878
10
46.723499999998467
20
-13.196000000005634
42
0.99999999999999989
10
55.123499999989505
20
-13.196000000010599
10
55.12349999999843
20
-11.199999999997877
10
59.70000000000509
20
-11.199999999997877
10
59.70000000000509
20
11.200000000002122
10
55.123499999998415
20
11.200000000002115
10
55.123499999998458
20
13.196000000009175
42
0.99999999999999989
10
46.723500000001138
20
13.196000000001721
10
46.723499999998495
20
11.200000000002177
10
-46.723499999988391
20
11.200000000002039
10
-46.723499999988348
20
13.196000000009143
42
0.99999999999999989
10
-55.123499999989775
20
13.195999999984577
10
-55.123499999988283
20
11.200000000002126
10
-59.053565375280215
20
11.200000000002122
42
0.11580714676901165
10
-59.699999999994937
20
10.553565375287414
0
CIRCLE
5
101
100
AcDbEntity
8
0
100
AcDbCircle
10
-50.923499999989765
20
13.195999999996861
30
0
40
1.6000000000000014
210
0
220
-0
230
1
0
CIRCLE
5
102
100
AcDbEntity
8
0
100
AcDbCircle
10
-50.923499999987236
20
-13.196000000002645
30
0
40
1.6000000000000014
210
0
220
-0
230
1
0
CIRCLE
5
103
100
AcDbEntity
8
0
100
AcDbCircle
10
50.923500000001127
20
13.196000000005448
30
0
40
1.5999999999999925
210
0
220
-0
230
1
0
CIRCLE
5
104
100
AcDbEntity
8
0
100
AcDbCircle
10
50.923499999989509
20
-13.196000000008116
30
0
40
1.6000000000000014
210
0
220
-0
230
1
0
LWPOLYLINE
5
105
100
AcDbEntity
8
0
100
AcDbPolyline
90
22
70
1
43
0.0
10
-45.723499985087187
20
13.196000000009121
42
0.99999999999999989
10
-56.123500014892343
20
13.195999999981655
10
-56.12350001489019
20
12.200000014903285
10
-59.307669686475712
20
12.200000014903283
42
0.16876096283656031
10
-60.700000014896098
20
10.807669686482907
10
-60.700000014896098
20
-10.807669686478643
42
0.1687609628365728
10
-59.307669686475705
20
-12.20000001489904
10
-56.123500014889473
20
-12.20000001489904
10
-56.123500014889494
20
-13.19600000000564
42
0.99999999999999989
10
-45.72349998508497
20
-13.195999999998911
10
-45.72349998508664
20
-12.20000001489904
10
45.72349998509732
20
-12.20000001489904
10
45.723499985097305
20
-13.196000000005611
42
0.99999999999999989
10
56.123500014881706
20
-13.196000000011189
10
56.123500014895114
20
-12.200000014899038
10
60.700000014906252
20
-12.200000014899038
10
60.700000014906252
20
12.200000014903287
10
56.123500014899591
20
12.200000014903278
10
56.123500014899619
20
13.196000000009152
42
0.99999999999999989
10
45.723499985102627
20
13.196000000000836
10
45.723499985098655
20
12.200000014903337
10
-45.723499985087187
20
12.200000014903203
0
LINE
5
106
100
AcDbEntity
8
0
100
AcDbLine
10
0
20
0
30
0
11
60.700000014906252
21
2.1249668691325496e-12
31
0
0
LINE
5
107
100
AcDbEntity
8
0
100
AcDbLine
10
0
20
0
30
0
11
5.3379523023977526e-12
21
-12.20000001489904
31
0
0
ENDSEC
0
SECTION
2
OBJECTS
0
DICTIONARY
5
C
100
AcDbDictionary
3
ACAD_GROUP
350
D
3
ACAD_MLINESTYLE
350
17
0
DICTIONARY
5
D
100
AcDbDictionary
0
DICTIONARY
5
1A
330
C
100
AcDbDictionary
0
DICTIONARY
5
17
100
AcDbDictionary
0
ENDSEC
0
EOF
