0
SECTION
2
HEADER
9
$INSUNITS
70
4
9
$ACADVER
1
AC1014
9
$HANDSEED
5
FFFF
0
ENDSEC
0
SECTION
2
TABLES
0
TABLE
2
VPORT
5
8
100
AcDbSymbolTable
0
ENDTAB
0
TABLE
2
LTYPE
5
5
100
AcDbSymbolTable
0
LTYPE
5
14
100
AcDbSymbolTableRecord
100
AcDbLinetypeTableRecord
2
BYBLOCK
70
0
0
LTYPE
5
15
100
AcDbSymbolTableRecord
100
AcDbLinetypeTableRecord
2
BYLAYER
70
0
0
ENDTAB
0
TABLE
2
LAYER
5
2
100
AcDbSymbolTable
70
2
0
LAYER
5
50
100
AcDbSymbolTableRecord
100
AcDbLayerTableRecord
2
0
70
0
6
CONTINUOUS
0
ENDTAB
0
TABLE
2
STYLE
5
3
100
AcDbSymbolTable
70
1
0
STYLE
5
11
100
AcDbSymbolTableRecord
100
AcDbTextStyleTableRecord
2
STANDARD
70
0
0
ENDTAB
0
TABLE
2
VIEW
5
6
100
AcDbSymbolTable
70
0
0
ENDTAB
0
TABLE
2
UCS
5
7
100
AcDbSymbolTable
70
0
0
ENDTAB
0
TABLE
2
APPID
5
9
100
AcDbSymbolTable
70
2
0
APPID
5
12
100
AcDbSymbolTableRecord
100
AcDbRegAppTableRecord
2
ACAD
70
0
0
ENDTAB
0
TABLE
2
DIMSTYLE
5
A
100
AcDbSymbolTable
70
1
0
ENDTAB
0
TABLE
2
BLOCK_RECORD
5
1
100
AcDbSymbolTable
70
1
0
BLOCK_RECORD
5
1F
100
AcDbSymbolTableRecord
100
AcDbBlockTableRecord
2
*MODEL_SPACE
0
BLOCK_RECORD
5
1B
100
AcDbSymbolTableRecord
100
AcDbBlockTableRecord
2
*PAPER_SPACE
0
ENDTAB
0
ENDSEC
0
SECTION
2
BLOCKS
0
BLOCK
5
20
100
AcDbEntity
100
AcDbBlockBegin
2
*MODEL_SPACE
0
ENDBLK
5
21
100
AcDbEntity
100
AcDbBlockEnd
0
BLOCK
5
1C
100
AcDbEntity
100
AcDbBlockBegin
2
*PAPER_SPACE
0
ENDBLK
5
1D
100
AcDbEntity
100
AcDbBlockEnd
0
ENDSEC
0
SECTION
2
ENTITIES
0
LWPOLYLINE
5
100
100
AcDbEntity
8
0
100
AcDbPolyline
90
28
70
1
43
0.0
10
-49.098950668059956
20
44.725365431023704
42
0.24932800284318837
10
-50.75702581317006
20
43.843751237965201
10
-70.049754766762518
20
15.241104315273475
42
-0.41421356237309537
10
-73.520330956827053
20
14.566492642562716
10
-82.72926520229791
20
20.777997222171042
42
0.52698588744188346
10
-85.797596381546867
20
19.564571427689966
42
0.11257101268960493
10
-85.797596381546839
20
-19.564571427689998
42
0.52698588744189478
10
-82.729265202297896
20
-20.777997222171074
10
-73.520330956827024
20
-14.566492642562753
42
-0.41421356237309415
10
-70.049754766762561
20
-15.241104315273448
10
-42.090109593230181
20
-56.692982943018094
42
-0.41421356237513168
10
-42.764721265943322
20
-60.163559133094644
10
-52.903813260847876
20
-67.00246303670221
42
0.51489872576002094
10
-52.989739720276809
20
-70.257294883715232
42
0.3348328414131731
10
52.989739720276823
20
-70.257294883715247
42
0.51489872576002138
10
52.903813260847883
20
-67.00246303670221
10
42.764721265943315
20
-60.163559133094665
42
-0.41421356237514301
10
42.090109593230196
20
-56.692982943018052
10
70.049754766762561
20
-15.241104315273443
42
-0.41421356237309126
10
73.520330956827081
20
-14.566492642562741
10
82.72926520229791
20
-20.777997222171045
42
0.5269858874418839
10
85.797596381546867
20
-19.564571427689955
42
0.11257101268960493
10
85.797596381546839
20
19.564571427689998
42
0.52698588744189701
10
82.72926520229791
20
20.777997222171095
10
73.520330956827024
20
14.566492642562693
42
-0.41421356237308982
10
70.049754766762518
20
15.241104315273441
10
50.757025813170095
20
43.843751237965208
42
0.2493280028431763
10
49.098950668060006
20
44.725365431023725
0
CIRCLE
5
101
100
AcDbEntity
8
0
100
AcDbCircle
10
-33.029206991028744
20
-39.725365431023725
30
0
40
1.6000000000000003
210
0
220
-0
230
1
0
CIRCLE
5
102
100
AcDbEntity
8
0
100
AcDbCircle
10
-33.02920699102873
20
39.725365431023725
30
0
40
1.6000000000000003
210
0
220
-0
230
1
0
CIRCLE
5
103
100
AcDbEntity
8
0
100
AcDbCircle
10
-50.923379902092442
20
13.196163109262262
30
0
40
1.6000000000000003
210
0
220
-0
230
1
0
CIRCLE
5
104
100
AcDbEntity
8
0
100
AcDbCircle
10
-50.923379902092478
20
-13.196163109262265
30
0
40
1.6000000000000003
210
0
220
-0
230
1
0
CIRCLE
5
105
100
AcDbEntity
8
0
100
AcDbCircle
10
50.923379902092478
20
13.196163109262276
30
0
40
1.6000000000000003
210
0
220
-0
230
1
0
CIRCLE
5
106
100
AcDbEntity
8
0
100
AcDbCircle
10
33.029206991028744
20
-39.725365431023732
30
0
40
1.6000000000000003
210
0
220
-0
230
1
0
CIRCLE
5
107
100
AcDbEntity
8
0
100
AcDbCircle
10
50.923379902092456
20
-13.196163109262269
30
0
40
1.6000000000000003
210
0
220
-0
230
1
0
CIRCLE
5
108
100
AcDbEntity
8
0
100
AcDbCircle
10
33.029206991028744
20
39.725365431023732
30
0
40
1.6000000000000003
210
0
220
-0
230
1
0
CIRCLE
5
109
100
AcDbEntity
8
0
100
AcDbCircle
10
-81.791143492327791
20
-14.11413639644471
30
0
40
1.6000000000000014
210
0
220
-0
230
1
0
CIRCLE
5
110
100
AcDbEntity
8
0
100
AcDbCircle
10
-81.791143492327819
20
14.114136396444689
30
0
40
1.6000000000000014
210
0
220
-0
230
1
0
CIRCLE
5
111
100
AcDbEntity
8
0
100
AcDbCircle
10
46.527559784296351
20
-68.732715503744856
30
0
40
1.6000000000000014
210
0
220
-0
230
1
0
CIRCLE
5
112
100
AcDbEntity
8
0
100
AcDbCircle
10
-46.527559784296393
20
-68.732715503744814
30
0
40
1.6000000000000014
210
0
220
-0
230
1
0
CIRCLE
5
113
100
AcDbEntity
8
0
100
AcDbCircle
10
81.791143492327819
20
14.1141363964447
30
0
40
1.6000000000000014
210
0
220
-0
230
1
0
CIRCLE
5
114
100
AcDbEntity
8
0
100
AcDbCircle
10
81.791143492327834
20
-14.114136396444506
30
0
40
1.6000000000000014
210
0
220
-0
230
1
0
ENDSEC
0
SECTION
2
OBJECTS
0
DICTIONARY
5
C
100
AcDbDictionary
3
ACAD_GROUP
350
D
3
ACAD_MLINESTYLE
350
17
0
DICTIONARY
5
D
100
AcDbDictionary
0
DICTIONARY
5
1A
330
C
100
AcDbDictionary
0
DICTIONARY
5
17
100
AcDbDictionary
0
ENDSEC
0
EOF
