0
SECTION
2
HEADER
9
$INSUNITS
70
4
9
$ACADVER
1
AC1014
9
$HANDSEED
5
FFFF
0
ENDSEC
0
SECTION
2
TABLES
0
TABLE
2
VPORT
5
8
100
AcDbSymbolTable
0
ENDTAB
0
TABLE
2
LTYPE
5
5
100
AcDbSymbolTable
0
LTYPE
5
14
100
AcDbSymbolTableRecord
100
AcDbLinetypeTableRecord
2
BYBLOCK
70
0
0
LTYPE
5
15
100
AcDbSymbolTableRecord
100
AcDbLinetypeTableRecord
2
BYLAYER
70
0
0
ENDTAB
0
TABLE
2
LAYER
5
2
100
AcDbSymbolTable
70
2
0
LAYER
5
50
100
AcDbSymbolTableRecord
100
AcDbLayerTableRecord
2
0
70
0
6
CONTINUOUS
0
ENDTAB
0
TABLE
2
STYLE
5
3
100
AcDbSymbolTable
70
1
0
STYLE
5
11
100
AcDbSymbolTableRecord
100
AcDbTextStyleTableRecord
2
STANDARD
70
0
0
ENDTAB
0
TABLE
2
VIEW
5
6
100
AcDbSymbolTable
70
0
0
ENDTAB
0
TABLE
2
UCS
5
7
100
AcDbSymbolTable
70
0
0
ENDTAB
0
TABLE
2
APPID
5
9
100
AcDbSymbolTable
70
2
0
APPID
5
12
100
AcDbSymbolTableRecord
100
AcDbRegAppTableRecord
2
ACAD
70
0
0
ENDTAB
0
TABLE
2
DIMSTYLE
5
A
100
AcDbSymbolTable
70
1
0
ENDTAB
0
TABLE
2
BLOCK_RECORD
5
1
100
AcDbSymbolTable
70
1
0
BLOCK_RECORD
5
1F
100
AcDbSymbolTableRecord
100
AcDbBlockTableRecord
2
*MODEL_SPACE
0
BLOCK_RECORD
5
1B
100
AcDbSymbolTableRecord
100
AcDbBlockTableRecord
2
*PAPER_SPACE
0
ENDTAB
0
ENDSEC
0
SECTION
2
BLOCKS
0
BLOCK
5
20
100
AcDbEntity
100
AcDbBlockBegin
2
*MODEL_SPACE
0
ENDBLK
5
21
100
AcDbEntity
100
AcDbBlockEnd
0
BLOCK
5
1C
100
AcDbEntity
100
AcDbBlockBegin
2
*PAPER_SPACE
0
ENDBLK
5
1D
100
AcDbEntity
100
AcDbBlockEnd
0
ENDSEC
0
SECTION
2
ENTITIES
0
LWPOLYLINE
5
100
100
AcDbEntity
8
0
100
AcDbPolyline
90
8
70
1
43
0.0
10
-32.499999999999993
20
-21
10
-32.500000000000036
20
-17.500000000000004
42
-0.41421356237309409
10
-30.500000000000043
20
-15.500000000000007
10
30.499999999999972
20
-15.500000000000005
42
-0.41421356237309337
10
32.499999999999957
20
-17.5
10
32.5
20
-21.000000000000007
42
-0.41421356237309437
10
30.500000000000011
20
-23
10
-30.500000000000004
20
-23
42
-0.41421356237309309
0
LWPOLYLINE
5
101
100
AcDbEntity
8
0
100
AcDbPolyline
90
28
70
1
43
0.0
10
-49.098950668059956
20
44.725365431023747
42
0.24932800284318252
10
-50.757025813170038
20
43.843751237965236
10
-70.049754766762518
20
15.241104315273475
42
-0.41421356237309392
10
-73.520330956827053
20
14.566492642562716
10
-82.72926520229791
20
20.777997222171042
42
0.52698588744188346
10
-85.797596381546867
20
19.564571427689966
42
0.112571012689605
10
-85.797596381546896
20
-19.564571427689934
42
0.52698588744190455
10
-82.729265202297896
20
-20.777997222171084
10
-73.520330956827024
20
-14.56649264256275
42
-0.4142135623730932
10
-70.049754766762561
20
-15.241104315273448
10
-42.090109593229357
20
-56.692982943019231
42
-0.41421356237309509
10
-42.764721265931954
20
-60.1635591330853
10
-52.90381326084826
20
-67.002463036702153
42
0.51489872575999585
10
-52.989739720277043
20
-70.25729488371509
42
0.3348328414131746
10
52.989739720276972
20
-70.257294883715147
42
0.51489872576000739
10
52.903813260848253
20
-67.002463036702153
10
42.764721265931975
20
-60.163559133085286
42
-0.41421356237308837
10
42.090109593229357
20
-56.692982943019274
10
70.049754766762561
20
-15.241104315273464
42
-0.41421356237309148
10
73.520330956827081
20
-14.566492642562739
10
82.72926520229791
20
-20.777997222171045
42
0.52698588744188557
10
85.797596381546896
20
-19.564571427689955
42
0.112571012689605
10
85.797596381546896
20
19.564571427689941
42
0.52698588744190522
10
82.72926520229791
20
20.777997222171116
10
73.52033095682701
20
14.566492642562691
42
-0.4142135623730866
10
70.049754766762518
20
15.241104315273441
10
50.757025813170095
20
43.843751237965243
42
0.24932800284318052
10
49.098950668060013
20
44.725365431023754
0
CIRCLE
5
102
100
AcDbEntity
8
0
100
AcDbCircle
10
50.923379902092492
20
-13.196163109262283
30
0
40
1.6000000000000014
210
0
220
-0
230
1
0
CIRCLE
5
103
100
AcDbEntity
8
0
100
AcDbCircle
10
81.791143492327834
20
-14.114136396444506
30
0
40
1.6000000000000014
210
0
220
-0
230
1
0
CIRCLE
5
104
100
AcDbEntity
8
0
100
AcDbCircle
10
-50.923379902092492
20
13.196163109262283
30
0
40
1.6000000000000014
210
0
220
-0
230
1
0
CIRCLE
5
105
100
AcDbEntity
8
0
100
AcDbCircle
10
-81.791143492327819
20
14.114136396444689
30
0
40
1.6000000000000014
210
0
220
-0
230
1
0
CIRCLE
5
106
100
AcDbEntity
8
0
100
AcDbCircle
10
-45.44360476671816
20
-68.001578612511025
30
0
40
1.6000000000000014
210
0
220
-0
230
1
0
CIRCLE
5
107
100
AcDbEntity
8
0
100
AcDbCircle
10
81.791143492327819
20
14.1141363964447
30
0
40
1.6000000000000014
210
0
220
-0
230
1
0
CIRCLE
5
108
100
AcDbEntity
8
0
100
AcDbCircle
10
-33.029206991028779
20
-39.725365431023747
30
0
40
1.6000000000000014
210
0
220
-0
230
1
0
CIRCLE
5
109
100
AcDbEntity
8
0
100
AcDbCircle
10
33.029206991028779
20
-39.725365431023747
30
0
40
1.6000000000000014
210
0
220
-0
230
1
0
CIRCLE
5
110
100
AcDbEntity
8
0
100
AcDbCircle
10
33.029206991028779
20
39.725365431023747
30
0
40
1.6000000000000014
210
0
220
-0
230
1
0
CIRCLE
5
111
100
AcDbEntity
8
0
100
AcDbCircle
10
45.44360476671816
20
-68.001578612511025
30
0
40
1.6000000000000014
210
0
220
-0
230
1
0
CIRCLE
5
112
100
AcDbEntity
8
0
100
AcDbCircle
10
50.923379902092492
20
13.196163109262283
30
0
40
1.6000000000000014
210
0
220
-0
230
1
0
CIRCLE
5
113
100
AcDbEntity
8
0
100
AcDbCircle
10
-81.791143492327791
20
-14.11413639644471
30
0
40
1.6000000000000014
210
0
220
-0
230
1
0
CIRCLE
5
114
100
AcDbEntity
8
0
100
AcDbCircle
10
-50.923379902092492
20
-13.196163109262283
30
0
40
1.6000000000000014
210
0
220
-0
230
1
0
CIRCLE
5
115
100
AcDbEntity
8
0
100
AcDbCircle
10
-33.029206991028779
20
39.725365431023747
30
0
40
1.6000000000000014
210
0
220
-0
230
1
0
ENDSEC
0
SECTION
2
OBJECTS
0
DICTIONARY
5
C
100
AcDbDictionary
3
ACAD_GROUP
350
D
3
ACAD_MLINESTYLE
350
17
0
DICTIONARY
5
D
100
AcDbDictionary
0
DICTIONARY
5
1A
330
C
100
AcDbDictionary
0
DICTIONARY
5
17
100
AcDbDictionary
0
ENDSEC
0
EOF
