0
SECTION
2
HEADER
9
$INSUNITS
70
4
9
$ACADVER
1
AC1014
9
$HANDSEED
5
FFFF
0
ENDSEC
0
SECTION
2
TABLES
0
TABLE
2
VPORT
5
8
100
AcDbSymbolTable
0
ENDTAB
0
TABLE
2
LTYPE
5
5
100
AcDbSymbolTable
0
LTYPE
5
14
100
AcDbSymbolTableRecord
100
AcDbLinetypeTableRecord
2
BYBLOCK
70
0
0
LTYPE
5
15
100
AcDbSymbolTableRecord
100
AcDbLinetypeTableRecord
2
BYLAYER
70
0
0
ENDTAB
0
TABLE
2
LAYER
5
2
100
AcDbSymbolTable
70
2
0
LAYER
5
50
100
AcDbSymbolTableRecord
100
AcDbLayerTableRecord
2
0
70
0
6
CONTINUOUS
0
ENDTAB
0
TABLE
2
STYLE
5
3
100
AcDbSymbolTable
70
1
0
STYLE
5
11
100
AcDbSymbolTableRecord
100
AcDbTextStyleTableRecord
2
STANDARD
70
0
0
ENDTAB
0
TABLE
2
VIEW
5
6
100
AcDbSymbolTable
70
0
0
ENDTAB
0
TABLE
2
UCS
5
7
100
AcDbSymbolTable
70
0
0
ENDTAB
0
TABLE
2
APPID
5
9
100
AcDbSymbolTable
70
2
0
APPID
5
12
100
AcDbSymbolTableRecord
100
AcDbRegAppTableRecord
2
ACAD
70
0
0
ENDTAB
0
TABLE
2
DIMSTYLE
5
A
100
AcDbSymbolTable
70
1
0
ENDTAB
0
TABLE
2
BLOCK_RECORD
5
1
100
AcDbSymbolTable
70
1
0
BLOCK_RECORD
5
1F
100
AcDbSymbolTableRecord
100
AcDbBlockTableRecord
2
*MODEL_SPACE
0
BLOCK_RECORD
5
1B
100
AcDbSymbolTableRecord
100
AcDbBlockTableRecord
2
*PAPER_SPACE
0
ENDTAB
0
ENDSEC
0
SECTION
2
BLOCKS
0
BLOCK
5
20
100
AcDbEntity
100
AcDbBlockBegin
2
*MODEL_SPACE
0
ENDBLK
5
21
100
AcDbEntity
100
AcDbBlockEnd
0
BLOCK
5
1C
100
AcDbEntity
100
AcDbBlockBegin
2
*PAPER_SPACE
0
ENDBLK
5
1D
100
AcDbEntity
100
AcDbBlockEnd
0
ENDSEC
0
SECTION
2
ENTITIES
0
CIRCLE
5
100
100
AcDbEntity
8
0
100
AcDbCircle
10
81.791143492327834
20
-14.114136396444506
30
0
40
1.6000000000000014
210
0
220
-0
230
1
0
LWPOLYLINE
5
101
100
AcDbEntity
8
0
100
AcDbPolyline
90
40
70
1
43
0.0
10
-40.286298527169109
20
74.885705958287787
42
0.57416915981679939
10
-43.269700818498613
20
76.627234003829358
42
0.033051203483702399
10
-52.989739720277086
20
70.257294883715062
42
0.51489872575998819
10
-52.903813260848239
20
67.002463036702167
10
-42.764721265931939
20
60.163559133085315
42
-0.41421356237325863
10
-42.090109593230132
20
56.692982943018102
10
-70.049754766762504
20
15.241104315273477
42
-0.41421356237309448
10
-73.520330956827053
20
14.566492642562716
10
-82.72926520229791
20
20.777997222171038
42
0.52698588744188379
10
-85.797596381546867
20
19.564571427689966
42
0.11257101268960468
10
-85.797596381546867
20
-19.564571427689891
42
0.52698588744191088
10
-82.729265202297896
20
-20.777997222171084
10
-73.520330956827024
20
-14.566492642562753
42
-0.41421356237309415
10
-70.049754766762561
20
-15.241104315273448
10
-42.090109593229357
20
-56.692982943019231
42
-0.41421356237309442
10
-42.764721265931954
20
-60.1635591330853
10
-52.903813260848253
20
-67.002463036702153
42
0.51489872575999796
10
-52.989739720277043
20
-70.25729488371509
42
0.33483284141317471
10
52.989739720276987
20
-70.257294883715133
42
0.51489872576000451
10
52.903813260848253
20
-67.002463036702153
10
42.764721265931975
20
-60.163559133085286
42
-0.41421356237308837
10
42.090109593229357
20
-56.692982943019274
10
70.049754766762561
20
-15.241104315273464
42
-0.41421356237309148
10
73.520330956827081
20
-14.566492642562739
10
82.72926520229791
20
-20.777997222171045
42
0.52698588744188557
10
85.797596381546896
20
-19.564571427689955
42
0.11257101268960487
10
85.797596381546853
20
19.564571427689955
42
0.52698588744190222
10
82.72926520229791
20
20.777997222171116
10
73.52033095682701
20
14.566492642562691
42
-0.41421356237308682
10
70.049754766762518
20
15.241104315273441
10
42.090109593229442
20
56.692982943019238
42
-0.41421356237309276
10
42.764721265931939
20
60.163559133085307
10
52.903813260848224
20
67.002463036702181
42
0.51489872575999407
10
52.989739720277022
20
70.257294883715076
42
0.034960889211998226
10
42.683787553594399
20
76.955144597873513
42
0.57163561306848953
10
39.713701472830898
20
75.206164038830948
10
39.713701472830884
20
65.609986810701102
42
-0.41421356237310414
10
38.713701472830884
20
64.609986810701088
10
-39.28629852716913
20
64.609986810701102
42
-0.41421356237309243
10
-40.286298527169116
20
65.609986810701088
0
LWPOLYLINE
5
102
100
AcDbEntity
8
0
100
AcDbPolyline
90
8
70
1
43
0.0
10
-32.499999999999993
20
-21
10
-32.499999999999993
20
-17.499999999999996
42
-0.41421356237309637
10
-30.5
20
-15.5
10
30.500000000000014
20
-15.5
42
-0.41421356237309309
10
32.500000000000007
20
-17.499999999999993
10
32.5
20
-21.000000000000007
42
-0.41421356237309437
10
30.500000000000011
20
-23
10
-30.500000000000004
20
-23
42
-0.41421356237309309
0
CIRCLE
5
103
100
AcDbEntity
8
0
100
AcDbCircle
10
-81.791143492327819
20
14.114136396444689
30
0
40
1.6000000000000014
210
0
220
-0
230
1
0
CIRCLE
5
104
100
AcDbEntity
8
0
100
AcDbCircle
10
-50.923379902092492
20
-13.196163109262283
30
0
40
1.6000000000000014
210
0
220
-0
230
1
0
CIRCLE
5
105
100
AcDbEntity
8
0
100
AcDbCircle
10
-33.029206991028779
20
39.725365431023747
30
0
40
1.6000000000000014
210
0
220
-0
230
1
0
CIRCLE
5
106
100
AcDbEntity
8
0
100
AcDbCircle
10
50.923379902092492
20
-13.196163109262283
30
0
40
1.6000000000000014
210
0
220
-0
230
1
0
CIRCLE
5
107
100
AcDbEntity
8
0
100
AcDbCircle
10
50.923379902092492
20
13.196163109262283
30
0
40
1.6000000000000014
210
0
220
-0
230
1
0
CIRCLE
5
108
100
AcDbEntity
8
0
100
AcDbCircle
10
33.029206991028779
20
39.725365431023747
30
0
40
1.6000000000000014
210
0
220
-0
230
1
0
CIRCLE
5
109
100
AcDbEntity
8
0
100
AcDbCircle
10
-50.923379902092492
20
13.196163109262283
30
0
40
1.6000000000000014
210
0
220
-0
230
1
0
CIRCLE
5
110
100
AcDbEntity
8
0
100
AcDbCircle
10
81.791143492327819
20
14.1141363964447
30
0
40
1.6000000000000014
210
0
220
-0
230
1
0
CIRCLE
5
111
100
AcDbEntity
8
0
100
AcDbCircle
10
45.44360476671816
20
-68.001578612511025
30
0
40
1.6000000000000014
210
0
220
-0
230
1
0
CIRCLE
5
112
100
AcDbEntity
8
0
100
AcDbCircle
10
-45.44360476671816
20
-68.001578612511025
30
0
40
1.6000000000000014
210
0
220
-0
230
1
0
CIRCLE
5
113
100
AcDbEntity
8
0
100
AcDbCircle
10
45.44360476671816
20
68.001578612511025
30
0
40
1.6000000000000014
210
0
220
-0
230
1
0
CIRCLE
5
114
100
AcDbEntity
8
0
100
AcDbCircle
10
-45.44360476671816
20
68.001578612511025
30
0
40
1.6000000000000014
210
0
220
-0
230
1
0
CIRCLE
5
115
100
AcDbEntity
8
0
100
AcDbCircle
10
-81.791143492327791
20
-14.11413639644471
30
0
40
1.6000000000000014
210
0
220
-0
230
1
0
CIRCLE
5
116
100
AcDbEntity
8
0
100
AcDbCircle
10
-33.029206991028779
20
-39.725365431023747
30
0
40
1.6000000000000014
210
0
220
-0
230
1
0
CIRCLE
5
117
100
AcDbEntity
8
0
100
AcDbCircle
10
33.029206991028779
20
-39.725365431023747
30
0
40
1.6000000000000014
210
0
220
-0
230
1
0
LWPOLYLINE
5
118
100
AcDbEntity
8
0
100
AcDbPolyline
90
4
70
1
43
0.0
10
-43.286298527169116
20
65.609986810701088
42
0.11346798759731852
10
-42.884706582341764
20
63.863144096410942
10
-50.054306595089784
20
68.699100367361083
42
-0.023842374972112907
10
-43.286298527169109
20
73.152555388153047
0
LWPOLYLINE
5
119
100
AcDbEntity
8
0
100
AcDbPolyline
90
4
70
1
43
0.0
10
41.910972013807289
20
63.206351836790844
10
50.054306595089898
20
68.699100367360998
42
0.025795946455684924
10
42.713701472830877
20
73.488364429274668
10
42.713701472830891
20
65.609986810701088
42
-0.16256925868188488
0
LWPOLYLINE
5
120
100
AcDbEntity
8
0
100
AcDbPolyline
90
24
70
1
43
0.0
10
50.05430659508994
20
-68.699100367360984
10
41.087142555520238
20
-62.650671850750754
42
-0.4142135623734966
10
39.602996875568138
20
-55.015404232601242
10
67.562642049097434
20
-13.563525604861219
42
-0.41421356237309315
10
75.197909667239315
20
-12.079379924897612
10
83.18588849458169
20
-17.46733967629385
42
0.10385734399385484
10
83.185888494581675
20
17.467339676293928
10
75.197909667238591
20
12.079379924897115
42
-0.41421356237304652
10
67.562642049097406
20
13.563525604861169
10
39.602996875564308
20
55.015404232606997
42
-0.35266151783140803
10
40.186592526367633
20
61.891036428615926
42
-0.094554474835967683
10
38.713701472830842
20
61.609986810701088
10
-39.28629852716913
20
61.609986810701088
42
-0.044131683834892729
10
-39.988293170686177
20
61.672068131947889
42
-0.33763201222180611
10
-39.602996875569886
20
55.015404232598627
10
-67.562642049097377
20
13.563525604861235
42
-0.41421356237309415
10
-75.197909667239287
20
12.079379924897582
10
-83.18588849458169
20
17.467339676293843
42
0.10385734399385484
10
-83.185888494581675
20
-17.467339676293907
10
-75.197909667238591
20
-12.079379924897168
42
-0.41421356237304829
10
-67.562642049097462
20
-13.563525604861171
10
-39.60299687556423
20
-55.01540423260699
42
-0.41421356237272039
10
-41.087142555513879
20
-62.650671850746491
10
-50.054306595089948
20
-68.699100367360984
42
0.32566427829085265
0
ENDSEC
0
SECTION
2
OBJECTS
0
DICTIONARY
5
C
100
AcDbDictionary
3
ACAD_GROUP
350
D
3
ACAD_MLINESTYLE
350
17
0
DICTIONARY
5
D
100
AcDbDictionary
0
DICTIONARY
5
1A
330
C
100
AcDbDictionary
0
DICTIONARY
5
17
100
AcDbDictionary
0
ENDSEC
0
EOF
