0
SECTION
2
HEADER
9
$INSUNITS
70
4
9
$ACADVER
1
AC1014
9
$HANDSEED
5
FFFF
0
ENDSEC
0
SECTION
2
TABLES
0
TABLE
2
VPORT
5
8
100
AcDbSymbolTable
0
ENDTAB
0
TABLE
2
LTYPE
5
5
100
AcDbSymbolTable
0
LTYPE
5
14
100
AcDbSymbolTableRecord
100
AcDbLinetypeTableRecord
2
BYBLOCK
70
0
0
LTYPE
5
15
100
AcDbSymbolTableRecord
100
AcDbLinetypeTableRecord
2
BYLAYER
70
0
0
ENDTAB
0
TABLE
2
LAYER
5
2
100
AcDbSymbolTable
70
2
0
LAYER
5
50
100
AcDbSymbolTableRecord
100
AcDbLayerTableRecord
2
0
70
0
6
CONTINUOUS
0
ENDTAB
0
TABLE
2
STYLE
5
3
100
AcDbSymbolTable
70
1
0
STYLE
5
11
100
AcDbSymbolTableRecord
100
AcDbTextStyleTableRecord
2
STANDARD
70
0
0
ENDTAB
0
TABLE
2
VIEW
5
6
100
AcDbSymbolTable
70
0
0
ENDTAB
0
TABLE
2
UCS
5
7
100
AcDbSymbolTable
70
0
0
ENDTAB
0
TABLE
2
APPID
5
9
100
AcDbSymbolTable
70
2
0
APPID
5
12
100
AcDbSymbolTableRecord
100
AcDbRegAppTableRecord
2
ACAD
70
0
0
ENDTAB
0
TABLE
2
DIMSTYLE
5
A
100
AcDbSymbolTable
70
1
0
ENDTAB
0
TABLE
2
BLOCK_RECORD
5
1
100
AcDbSymbolTable
70
1
0
BLOCK_RECORD
5
1F
100
AcDbSymbolTableRecord
100
AcDbBlockTableRecord
2
*MODEL_SPACE
0
BLOCK_RECORD
5
1B
100
AcDbSymbolTableRecord
100
AcDbBlockTableRecord
2
*PAPER_SPACE
0
ENDTAB
0
ENDSEC
0
SECTION
2
BLOCKS
0
BLOCK
5
20
100
AcDbEntity
100
AcDbBlockBegin
2
*MODEL_SPACE
0
ENDBLK
5
21
100
AcDbEntity
100
AcDbBlockEnd
0
BLOCK
5
1C
100
AcDbEntity
100
AcDbBlockBegin
2
*PAPER_SPACE
0
ENDBLK
5
1D
100
AcDbEntity
100
AcDbBlockEnd
0
ENDSEC
0
SECTION
2
ENTITIES
0
CIRCLE
5
100
100
AcDbEntity
8
0
100
AcDbCircle
10
-20.000000000000032
20
36.609986810701145
30
0
40
1.6000000000000014
210
0
220
-0
230
1
0
CIRCLE
5
101
100
AcDbEntity
8
0
100
AcDbCircle
10
19.999999999999996
20
36.609986810701123
30
0
40
1.6000000000000014
210
0
220
-0
230
1
0
CIRCLE
5
102
100
AcDbEntity
8
0
100
AcDbCircle
10
-20.000000000000018
20
44.609986810701145
30
0
40
1.6000000000000014
210
0
220
-0
230
1
0
CIRCLE
5
103
100
AcDbEntity
8
0
100
AcDbCircle
10
19.999999999999996
20
44.609986810701123
30
0
40
1.6000000000000014
210
0
220
-0
230
1
0
LWPOLYLINE
5
104
100
AcDbEntity
8
0
100
AcDbPolyline
90
40
70
1
43
0.0
10
38.590528371635578
20
79.087110959991406
42
0.27796867590258129
10
36.534316457838983
20
78.905100645177257
10
21.00735211907238
20
67.571426747736766
42
-0.15895258952157096
10
18.059465992060421
20
66.609986810701088
10
-18.632063046398649
20
66.609986810701116
42
-0.16330028692285167
10
-21.647978807871979
20
67.621973255095071
10
-36.527812043212847
20
78.874774419592967
42
0.28261152468121659
10
-38.61171737914637
20
79.076768276358678
42
0.048029412925936835
10
-52.989739720276994
20
70.25729488371509
42
0.5148987257600024
10
-52.903813260848253
20
67.002463036702153
10
-42.764721265931946
20
60.163559133085307
42
-0.41421356237325629
10
-42.090109593230132
20
56.692982943018102
10
-70.049754766762518
20
15.241104315273471
42
-0.41421356237309481
10
-73.520330956827053
20
14.566492642562716
10
-82.72926520229791
20
20.777997222171042
42
0.52698588744188346
10
-85.797596381546867
20
19.564571427689966
42
0.11257101268960493
10
-85.797596381546839
20
-19.564571427689998
42
0.52698588744189234
10
-82.72926520229791
20
-20.777997222171066
10
-73.520330956827024
20
-14.566492642562753
42
-0.41421356237309426
10
-70.049754766762561
20
-15.241104315273448
10
-42.090109593229357
20
-56.692982943019217
42
-0.41421356237309853
10
-42.764721265931954
20
-60.1635591330853
10
-52.903813260848253
20
-67.002463036702153
42
0.51489872575999796
10
-52.989739720277043
20
-70.25729488371509
42
0.33483284141317488
10
52.989739720277029
20
-70.25729488371509
42
0.51489872575999474
10
52.903813260848253
20
-67.002463036702153
10
42.764721265931982
20
-60.163559133085293
42
-0.41421356237309126
10
42.090109593229357
20
-56.692982943019274
10
70.049754766762561
20
-15.241104315273448
42
-0.41421356237309181
10
73.520330956827081
20
-14.566492642562741
10
82.72926520229791
20
-20.777997222171045
42
0.5269858874418849
10
85.797596381546867
20
-19.564571427689955
42
0.11257101268960493
10
85.797596381546839
20
19.564571427689998
42
0.52698588744189656
10
82.72926520229791
20
20.777997222171095
10
73.520330956827024
20
14.566492642562693
42
-0.41421356237308998
10
70.049754766762518
20
15.241104315273441
10
42.09010959322945
20
56.692982943019231
42
-0.4142135623730982
10
42.764721265931939
20
60.163559133085307
10
52.903813260848224
20
67.002463036702181
42
0.51489872575999773
10
52.989739720277015
20
70.25729488371509
42
0.048096552007144605
0
CIRCLE
5
105
100
AcDbEntity
8
0
100
AcDbCircle
10
33.029206991028779
20
-39.725365431023747
30
0
40
1.6000000000000014
210
0
220
-0
230
1
0
CIRCLE
5
106
100
AcDbEntity
8
0
100
AcDbCircle
10
50.923379902092492
20
13.196163109262283
30
0
40
1.6000000000000014
210
0
220
-0
230
1
0
CIRCLE
5
107
100
AcDbEntity
8
0
100
AcDbCircle
10
81.791143492327834
20
-14.114136396444506
30
0
40
1.6000000000000014
210
0
220
-0
230
1
0
CIRCLE
5
108
100
AcDbEntity
8
0
100
AcDbCircle
10
-33.029206991028779
20
-39.725365431023747
30
0
40
1.6000000000000014
210
0
220
-0
230
1
0
CIRCLE
5
109
100
AcDbEntity
8
0
100
AcDbCircle
10
-50.923379902092492
20
-13.196163109262283
30
0
40
1.6000000000000014
210
0
220
-0
230
1
0
CIRCLE
5
110
100
AcDbEntity
8
0
100
AcDbCircle
10
-50.923379902092492
20
13.196163109262283
30
0
40
1.6000000000000014
210
0
220
-0
230
1
0
CIRCLE
5
111
100
AcDbEntity
8
0
100
AcDbCircle
10
-33.029206991028779
20
39.725365431023747
30
0
40
1.6000000000000014
210
0
220
-0
230
1
0
CIRCLE
5
112
100
AcDbEntity
8
0
100
AcDbCircle
10
33.029206991028779
20
39.725365431023747
30
0
40
1.6000000000000014
210
0
220
-0
230
1
0
CIRCLE
5
113
100
AcDbEntity
8
0
100
AcDbCircle
10
-81.791143492327819
20
14.114136396444689
30
0
40
1.6000000000000014
210
0
220
-0
230
1
0
CIRCLE
5
114
100
AcDbEntity
8
0
100
AcDbCircle
10
-81.791143492327791
20
-14.11413639644471
30
0
40
1.6000000000000014
210
0
220
-0
230
1
0
CIRCLE
5
115
100
AcDbEntity
8
0
100
AcDbCircle
10
81.791143492327819
20
14.1141363964447
30
0
40
1.6000000000000014
210
0
220
-0
230
1
0
CIRCLE
5
116
100
AcDbEntity
8
0
100
AcDbCircle
10
50.923379902092492
20
-13.196163109262283
30
0
40
1.6000000000000014
210
0
220
-0
230
1
0
CIRCLE
5
117
100
AcDbEntity
8
0
100
AcDbCircle
10
45.44360476671816
20
68.001578612511025
30
0
40
1.6000000000000014
210
0
220
-0
230
1
0
CIRCLE
5
118
100
AcDbEntity
8
0
100
AcDbCircle
10
-45.44360476671816
20
68.001578612511025
30
0
40
1.6000000000000014
210
0
220
-0
230
1
0
CIRCLE
5
119
100
AcDbEntity
8
0
100
AcDbCircle
10
-45.44360476671816
20
-68.001578612511025
30
0
40
1.6000000000000014
210
0
220
-0
230
1
0
CIRCLE
5
120
100
AcDbEntity
8
0
100
AcDbCircle
10
45.44360476671816
20
-68.001578612511025
30
0
40
1.6000000000000014
210
0
220
-0
230
1
0
CIRCLE
5
121
100
AcDbEntity
8
0
100
AcDbCircle
10
6.9499999999999815
20
49.409986810701156
30
0
40
2.1000000000000001
210
0
220
-0
230
1
0
CIRCLE
5
122
100
AcDbEntity
8
0
100
AcDbCircle
10
-6.9500000000000171
20
27.609986810701074
30
0
40
2.1000000000000005
210
0
220
-0
230
1
0
LWPOLYLINE
5
123
100
AcDbEntity
8
0
100
AcDbPolyline
90
30
70
1
43
0.0
10
50.054306595089926
20
-68.699100367360984
10
41.087142555520245
20
-62.650671850750761
42
-0.41421356237349855
10
39.602996875568145
20
-55.015404232601234
10
67.562642049097434
20
-13.563525604861201
42
-0.41421356237309426
10
75.19790966723933
20
-12.079379924897625
10
83.185888494581675
20
-17.46733967629384
42
0.10385734399385464
10
83.185888494581675
20
17.467339676293882
10
75.197909667238605
20
12.07937992489712
42
-0.41421356237304824
10
67.562642049097406
20
13.563525604861177
10
39.602996875564322
20
55.01540423260699
42
-0.41421356237271778
10
41.0871425555138
20
62.650671850746456
10
50.054306595089898
20
68.699100367360998
42
0.04218232061296958
10
37.814466403379122
20
76.125331727538068
10
22.776083795279675
20
65.148290709958275
42
-0.15895258952157484
10
18.059465992060407
20
63.609986810701088
10
-18.632063046398649
20
63.609986810701116
42
-0.16330028692285156
10
-23.457528264755837
20
65.229165121731413
10
-37.845428035204058
20
76.109944007548648
42
0.042080450038521212
10
-50.05430659508994
20
68.699100367360955
10
-41.087142555520217
20
62.650671850750783
42
-0.41421356237366519
10
-39.602996875569872
20
55.015404232598641
10
-67.562642049097391
20
13.56352560486123
42
-0.41421356237309492
10
-75.197909667239287
20
12.079379924897589
10
-83.185888494581675
20
17.46733967629384
42
0.10385734399385464
10
-83.185888494581675
20
-17.467339676293868
10
-75.197909667238591
20
-12.079379924897168
42
-0.41421356237304824
10
-67.562642049097462
20
-13.563525604861171
10
-39.60299687556423
20
-55.015404232606969
42
-0.41421356237272283
10
-41.087142555513893
20
-62.650671850746498
10
-50.054306595089948
20
-68.699100367360984
42
0.32566427829085265
0
ENDSEC
0
SECTION
2
OBJECTS
0
DICTIONARY
5
C
100
AcDbDictionary
3
ACAD_GROUP
350
D
3
ACAD_MLINESTYLE
350
17
0
DICTIONARY
5
D
100
AcDbDictionary
0
DICTIONARY
5
1A
330
C
100
AcDbDictionary
0
DICTIONARY
5
17
100
AcDbDictionary
0
ENDSEC
0
EOF
